<?xml version="1.0" encoding="utf-8"?>
<!-- Generator: Adobe Illustrator 27.5.0, SVG Export Plug-In . SVG Version: 6.00 Build 0)  -->
<svg version="1.1" xmlns="http://www.w3.org/2000/svg" xmlns:xlink="http://www.w3.org/1999/xlink" x="0px" y="0px"
	 viewBox="0 0 500 350" style="enable-background:new 0 0 500 350;" xml:space="preserve">
<g id="BACKGROUND">
	<g>
		<g>
			<g>
				<g>
					<rect style="fill:#FFFFFF;" width="0" height="0"/>
				</g>
			</g>
		</g>
	</g>
</g>
<g id="OBJECTS">
	<g>
		
			<ellipse transform="matrix(0.7071 -0.7071 0.7071 0.7071 -126.2999 176.1089)" style="fill:#ECB6B6;" cx="149.432" cy="240.512" rx="124.983" ry="124.983"/>
	</g>
	<g>
		<path style="fill:#29275F;" d="M444.196,448.102H94.802c-0.414,0-0.75-0.336-0.75-0.75c0-0.414,0.336-0.75,0.75-0.75h349.394
			c0.414,0,0.75,0.336,0.75,0.75C444.946,447.766,444.61,448.102,444.196,448.102z"/>
	</g>
	<g>
		<ellipse style="fill:#C7C7C7;" cx="358.603" cy="469.327" rx="91.427" ry="13.258"/>
	</g>
	<g>
		<g>
			<g>
				<path style="fill:#FFFFFF;" d="M318.802,107.497v272.317c0,12.433-10.082,22.515-22.515,22.515H119.596
					c-12.433,0-22.515-10.082-22.515-22.515V107.497c0-12.433,10.082-22.515,22.515-22.515h176.691
					C308.72,84.982,318.802,95.064,318.802,107.497z"/>
			</g>
			<g>
				<circle style="fill:#CD4239;" cx="244.536" cy="97.641" r="5.568"/>
			</g>
			<g>
				<circle style="fill:#DF6464;" cx="269.003" cy="97.641" r="5.568"/>
			</g>
			<g>
				<circle style="fill:#29275F;" cx="293.47" cy="97.641" r="5.568"/>
			</g>
			<g>
				<path style="fill:#29275F;" d="M296.287,403.078H119.595c-12.828,0-23.265-10.437-23.265-23.265V107.497
					c0-12.828,10.436-23.265,23.265-23.265h176.691c12.829,0,23.266,10.437,23.266,23.265v272.317
					C319.552,392.642,309.116,403.078,296.287,403.078z M119.595,85.732c-12.001,0-21.765,9.764-21.765,21.765v272.317
					c0,12.001,9.764,21.765,21.765,21.765h176.691c12.002,0,21.766-9.764,21.766-21.765V107.497
					c0-12.001-9.764-21.765-21.766-21.765H119.595z"/>
			</g>
			<g>
				<path style="fill:#29275F;" d="M318.802,108.247H97.081c-0.414,0-0.75-0.336-0.75-0.75c0-0.414,0.336-0.75,0.75-0.75h221.722
					c0.414,0,0.75,0.336,0.75,0.75C319.552,107.911,319.217,108.247,318.802,108.247z"/>
			</g>
		</g>
		<g>
			<polygon style="fill:#CD4239;" points="173.514,135.889 149.432,125.692 125.351,135.889 125.351,79.104 173.514,79.104 			"/>
		</g>
		<g>
			<g>
				<rect x="177.16" y="149.236" style="fill:#C7C7C7;" width="125.13" height="5.126"/>
			</g>
			<g>
				<rect x="177.16" y="162.96" style="fill:#C7C7C7;" width="125.13" height="5.126"/>
			</g>
			<g>
				<rect x="177.16" y="176.684" style="fill:#C7C7C7;" width="125.13" height="5.126"/>
			</g>
			<g>
				<rect x="177.16" y="190.408" style="fill:#C7C7C7;" width="125.13" height="5.126"/>
			</g>
			<g>
				<rect x="177.16" y="204.133" style="fill:#C7C7C7;" width="72.317" height="5.126"/>
			</g>
			<g>
				<g>
					<rect x="113.592" y="230.782" style="fill:#C7C7C7;" width="106.946" height="5.126"/>
				</g>
				<g>
					<rect x="113.592" y="244.506" style="fill:#C7C7C7;" width="106.946" height="5.126"/>
				</g>
				<g>
					<rect x="113.592" y="258.23" style="fill:#C7C7C7;" width="106.946" height="5.126"/>
				</g>
				<g>
					<rect x="113.592" y="271.954" style="fill:#C7C7C7;" width="106.946" height="5.126"/>
				</g>
				<g>
					<rect x="113.592" y="285.678" style="fill:#C7C7C7;" width="77.014" height="5.126"/>
				</g>
			</g>
			<g>
				<rect x="214.639" y="124.105" style="fill:#DF6464;" width="86.88" height="14.325"/>
			</g>
			<g>
				<path style="fill:#29275F;" d="M213.319,392.054c-0.11,0-0.221-0.025-0.323-0.073l-19.88-9.481
					c-0.374-0.178-0.533-0.626-0.354-1c0.178-0.374,0.627-0.532,0.999-0.354l19.557,9.327l19.557-9.327
					c0.374-0.178,0.822-0.021,0.999,0.354c0.179,0.374,0.02,0.822-0.354,1l-19.88,9.481
					C213.54,392.029,213.429,392.054,213.319,392.054z"/>
			</g>
			<g>
				<rect x="113.592" y="149.236" style="fill:#DF6464;" width="55.215" height="60.818"/>
			</g>
			<g>
				<path style="fill:#FFFFFF;" d="M148.281,194.727h-13.849l-2.447,8.071H119.49l15.931-46.306H147.5l15.931,46.306h-12.703
					L148.281,194.727z M144.896,183.482l-3.54-11.643l-3.54,11.643H144.896z"/>
			</g>
			<g>
				<g>
					<rect x="236.118" y="230.782" style="fill:#DF6464;" width="54.509" height="60.023"/>
				</g>
				<g>
					<path style="fill:#FFFFFF;" d="M281.105,269.02c0,6.393-5.294,10.114-15.214,10.114H245.64v-36.682h19.223
						c9.92,0,14.545,4.035,14.545,9.59c0,3.406-1.696,6.236-4.986,7.913C278.638,261.527,281.105,264.671,281.105,269.02z
						 M257.565,251.098v5.45h5.654c2.724,0,3.958-0.944,3.958-2.725c0-1.781-1.234-2.725-3.958-2.725H257.565z M268.872,267.606
						c0-1.887-1.336-2.882-4.009-2.882h-7.299v5.765h7.299C267.536,270.488,268.872,269.492,268.872,267.606z"/>
				</g>
			</g>
			<g>
				<g>
					<rect x="115.334" y="309.146" style="fill:#C7C7C7;" width="175.293" height="5.126"/>
				</g>
				<g>
					<rect x="115.334" y="322.871" style="fill:#C7C7C7;" width="175.293" height="5.126"/>
				</g>
				<g>
					<rect x="115.334" y="336.595" style="fill:#C7C7C7;" width="175.293" height="5.126"/>
				</g>
				<g>
					<rect x="115.334" y="350.784" style="fill:#C7C7C7;" width="92.608" height="4.661"/>
				</g>
			</g>
		</g>
	</g>
	<g>
		<g id="XMLID_00000053518429563786250270000016323537855738046861_">
			<g>
				<g>
					<path style="fill:#CD4239;" d="M463.496,167.174l-13.466,13.424l1.785-23.996c1.236,2.725,7.171,7.298,10.076,9.421
						C462.862,166.741,463.496,167.174,463.496,167.174z"/>
				</g>
				<g>
					<path style="fill:#FFFFFF;" d="M451.002,111.049h0.011c-0.021,0.032-0.042,0.053-0.074,0.084
						C450.959,111.102,450.981,111.081,451.002,111.049z"/>
				</g>
				<g>
					<path style="fill:#FFFFFF;" d="M447.886,68.538l0.01,0.021c-2.155,1.204-4.605,1.806-6.96,2.049
						C443.292,70.355,445.731,69.742,447.886,68.538z"/>
				</g>
				<g>
					<path style="fill:#FFFFFF;" d="M437.071,70.767c0.507,0.011,1.035,0.021,1.574,0c0.454-0.01,0.908-0.032,1.373-0.063
						c0.306-0.021,0.613-0.053,0.919-0.095c2.355-0.243,4.806-0.845,6.96-2.049l8.133,31.537c0,0-0.011,0.01-0.021,0.053
						c-0.063,0.306-0.38,1.51-0.94,3.105c-0.116,0.338-0.254,0.697-0.391,1.077c-0.127,0.359-0.285,0.729-0.444,1.088
						c-0.095,0.275-0.201,0.528-0.338,0.792c-0.338,0.792-0.739,1.574-1.172,2.345c-0.137,0.232-0.285,0.465-0.412,0.686
						c-0.19,0.306-0.38,0.602-0.581,0.887c-0.201,0.275-0.401,0.549-0.613,0.803c-0.021,0.021-0.032,0.053-0.053,0.074
						c-0.011,0.011-0.032,0.032-0.053,0.042h-0.011c-0.021,0.032-0.042,0.053-0.063,0.084c-0.074,0.095-0.148,0.19-0.222,0.285
						c-0.116,0.116-0.222,0.232-0.338,0.338c-0.053,0.053-0.127,0.116-0.19,0.169c-0.042,0.042-0.063,0.074-0.095,0.106
						c-0.032,0.021-0.053,0.053-0.095,0.074c-0.074,0.063-0.148,0.137-0.232,0.19c-0.063,0.053-0.106,0.095-0.169,0.148
						c-0.254,0.201-0.507,0.37-0.792,0.539h-0.011v0.011h-0.011c-0.148,0.084-0.296,0.158-0.454,0.211
						c-0.063,0.032-0.116,0.053-0.18,0.074c-0.053,0.032-0.106,0.053-0.158,0.063c-0.179,0.074-0.348,0.127-0.528,0.158
						c-0.148,0.042-0.306,0.063-0.454,0.085c-0.254,0.021-0.518,0.032-0.782,0.011c-0.264-0.021-0.549-0.053-0.803-0.106
						c-0.243-0.053-0.486-0.116-0.708-0.201c-0.475-0.169-0.898-0.401-1.299-0.687c-0.053-0.032-0.106-0.063-0.148-0.106
						c-0.032-0.021-0.063-0.053-0.095-0.074c-0.158-0.116-0.306-0.243-0.454-0.38h-0.011v-0.011h-0.01
						c-0.095-0.106-0.201-0.201-0.296-0.296c-0.095-0.106-0.201-0.222-0.296-0.338c-0.201-0.232-0.401-0.465-0.57-0.718v-0.01
						c-0.032-0.032-0.053-0.063-0.074-0.106c-0.106-0.148-0.201-0.306-0.296-0.475c-0.042-0.074-0.074-0.137-0.116-0.211
						c-0.032-0.053-0.063-0.095-0.095-0.148c-0.275-0.475-0.507-0.993-0.729-1.479c-0.032-0.095-0.053-0.19-0.085-0.285
						c-0.074-0.159-0.137-0.327-0.201-0.496c-0.063-0.18-0.116-0.359-0.169-0.539c-0.021-0.032-0.032-0.074-0.042-0.116
						c-0.021-0.042-0.021-0.084-0.032-0.127c-0.116-0.285-0.18-0.592-0.264-0.887c-0.042-0.127-0.063-0.243-0.095-0.37
						c-0.032-0.116-0.053-0.243-0.074-0.359c-0.011-0.053-0.021-0.116-0.042-0.18c-0.011-0.063-0.021-0.116-0.042-0.169
						c0-0.021-0.01-0.032-0.01-0.042c0-0.011,0-0.021-0.011-0.032c-0.085-0.401-0.158-0.76-0.211-1.067
						c-0.011-0.116-0.011-0.243-0.042-0.338c-0.011-0.063-0.011-0.127-0.021-0.18c0-0.032-0.011-0.053-0.011-0.085
						c-0.01-0.042-0.01-0.074-0.021-0.106c-0.011-0.095-0.021-0.158-0.032-0.201c-0.01,0.021-0.021,0.053-0.032,0.095
						c-0.032,0.085-0.074,0.211-0.137,0.38c0,0,0,0,0,0.011c-0.032,0.074-0.063,0.169-0.106,0.264
						c-0.106,0.296-0.253,0.665-0.433,1.088c-0.074,0.137-0.137,0.285-0.211,0.444c0,0,0,0,0,0.021c0,0,0,0.011,0,0.021
						c-0.095,0.18-0.19,0.37-0.296,0.581c-0.021,0.032-0.032,0.074-0.053,0.106c-0.021,0.032-0.042,0.074-0.063,0.116
						c-0.106,0.222-0.232,0.444-0.359,0.676c-0.106,0.18-0.211,0.359-0.338,0.539c-0.032,0.053-0.063,0.095-0.106,0.158
						c0,0.011,0,0.021-0.01,0.032c0,0.011,0,0.021-0.011,0.032c-0.032,0.074-0.074,0.137-0.116,0.19
						c-0.169,0.264-0.349,0.518-0.539,0.782c-0.021,0.042-0.063,0.095-0.095,0.137c-0.148,0.211-0.306,0.423-0.486,0.623
						c-0.855,1.046-1.88,1.986-3.095,2.609l-0.38,0.19c-0.306,0.137-0.634,0.253-0.961,0.348c-0.38,0.106-0.771,0.18-1.172,0.211
						c-0.37,0.032-0.76,0.042-1.151,0.01c-0.232-0.01-0.454-0.042-0.665-0.095c-0.433-0.095-0.834-0.232-1.215-0.423
						c-0.18-0.095-0.359-0.201-0.528-0.317c-0.211-0.148-0.391-0.296-0.581-0.475h-0.01v-0.011
						c-0.021-0.011-0.032-0.021-0.032-0.021c-0.042-0.042-0.084-0.085-0.127-0.127c-0.137-0.137-0.264-0.285-0.391-0.422
						c-0.095-0.106-0.18-0.222-0.253-0.338c-0.085-0.106-0.158-0.211-0.232-0.327c-0.032-0.053-0.074-0.116-0.116-0.18
						c-0.042-0.053-0.074-0.106-0.106-0.169c-0.074-0.127-0.137-0.253-0.201-0.38c-0.106-0.169-0.201-0.349-0.285-0.539
						c-0.084-0.19-0.169-0.38-0.243-0.581c-0.084-0.222-0.18-0.433-0.232-0.665c-0.275-0.708-0.465-1.457-0.623-2.207l-0.084-0.465
						c-0.539-2.746-0.56-5.418-0.549-6.464c0.011-0.296,0.011-0.465,0.011-0.465l11.903-27.091c0.148,0.011,0.296,0.032,0.444,0.042
						c0.148,0.011,0.306,0.021,0.465,0.042c0.285,0.021,0.591,0.042,0.898,0.063c0.169,0.01,0.349,0.021,0.539,0.021
						C436.659,70.756,436.87,70.767,437.071,70.767z"/>
				</g>
				<g>
					<path style="fill:#FFFFFF;" d="M441.052,109.877c0.042,0.074,0.074,0.137,0.116,0.211c-0.042-0.063-0.085-0.137-0.127-0.211
						c-0.032-0.053-0.053-0.095-0.085-0.148C440.989,109.782,441.021,109.824,441.052,109.877z"/>
				</g>
				<g>
					<path style="fill:#FFFFFF;" d="M440.144,107.965c0.032,0.095,0.053,0.19,0.085,0.285c-0.032-0.095-0.063-0.19-0.095-0.285
						c-0.063-0.169-0.127-0.327-0.19-0.496C440.007,107.638,440.07,107.807,440.144,107.965z"/>
				</g>
				<g>
					<path style="fill:#FFFFFF;" d="M439.775,106.93c0.053,0.18,0.106,0.359,0.169,0.539c-0.063-0.18-0.127-0.359-0.18-0.539
						c-0.011-0.032-0.021-0.074-0.032-0.116C439.743,106.856,439.753,106.898,439.775,106.93z"/>
				</g>
				<g>
					<path style="fill:#FFFFFF;" d="M440.081,125.772c0.813-1.278,3.675-0.581,3.675-0.581c-0.686-1.172-0.264-2.641,1.5-3.052
						c1.722-0.391,8.639,1.753,8.977,1.859c0.01,0,0.01,0,0.01,0l0.718-9.685c2.028-0.56,3.211,2.545,3.327,4.489
						c0.106,1.943,9.062,20.405,9.611,23.637s2.905,9.474,2.207,11.745c-0.581,1.87-6.253,9.305-8.217,11.84
						c-2.904-2.123-8.84-6.696-10.076-9.421c-2.355-5.239,0.275-11.079,0.275-11.079s-12.928-6.221-13.846-6.939
						c-0.929-0.718-0.349-2.566,0.412-2.862c0.729-0.285,6.759,1.025,7.066,1.098c-0.275-0.137-4.711-2.26-5.788-2.746
						c-1.098-0.496-1.774-1.267-1.679-2.831c0.085-1.563,1.827-1.721,1.827-1.721C439.204,128.698,439.278,127.061,440.081,125.772z
						"/>
				</g>
				<g>
					<path style="fill:#FFFFFF;" d="M439.225,104.892c0.021,0.063,0.032,0.127,0.042,0.18c0.021,0.116,0.042,0.243,0.074,0.359
						c-0.032-0.127-0.053-0.243-0.085-0.37C439.246,104.997,439.236,104.944,439.225,104.892z"/>
				</g>
				<g>
					<path style="fill:#FFFFFF;" d="M437.609,105.578c0.106-0.211,0.201-0.401,0.296-0.581c-0.095,0.169-0.19,0.37-0.285,0.581
						c-0.021,0.032-0.042,0.063-0.063,0.106C437.578,105.652,437.588,105.61,437.609,105.578z"/>
				</g>
				<g>
					<path style="fill:#FFFFFF;" d="M436.69,107.173c0.042-0.063,0.074-0.106,0.106-0.158c-0.021,0.053-0.063,0.106-0.095,0.158
						c-0.011,0.011-0.011,0.021-0.021,0.032C436.69,107.194,436.69,107.184,436.69,107.173z"/>
				</g>
				<g>
					<path style="fill:#B22522;" d="M436.5,468.363h-7.414l0.887-12.294c1.489,0.433,2.767,1.025,3.475,1.817
						C435.993,460.759,436.5,468.363,436.5,468.363z"/>
				</g>
				<g>
					<path style="fill:#29275F;" d="M447.886,68.538c-2.155,1.204-4.594,1.817-6.95,2.07c-0.306,0.042-0.613,0.074-0.919,0.095
						c-0.465,0.032-0.919,0.053-1.373,0.063c-0.539,0.021-1.067,0.011-1.574,0c-0.201,0-0.412-0.01-0.613-0.021
						c-0.19,0-0.37-0.011-0.539-0.021c-0.306-0.021-0.613-0.042-0.898-0.063c-0.158-0.021-0.317-0.032-0.465-0.042
						c-0.127-0.011-0.254-0.032-0.38-0.042l6.876-16.424l3.686-1.024l3.2,15.41c-0.011,0.011-0.032,0.011-0.042,0.021
						L447.886,68.538z"/>
				</g>
				<g>
					<path style="fill:#FFFFFF;" d="M426.794,111.82c0.38,0.19,0.782,0.327,1.215,0.423
						C427.576,112.158,427.174,112.01,426.794,111.82z"/>
				</g>
				<g>
					<path style="fill:#DF6464;" d="M456.008,100.149l-1.774,23.848c-0.338-0.106-7.256-2.25-8.977-1.859
						c-1.764,0.412-2.186,1.88-1.5,3.052c0,0-2.862-0.697-3.675,0.581c-0.803,1.288-0.877,2.926,0,3.749
						c0,0-1.743,0.158-1.827,1.721c-0.095,1.563,0.581,2.334,1.679,2.831c1.077,0.486,5.513,2.609,5.788,2.746
						c-0.306-0.074-6.337-1.384-7.066-1.098c-0.76,0.296-1.341,2.144-0.412,2.862c0.919,0.718,13.846,6.939,13.846,6.939
						s-2.63,5.841-0.275,11.079l-1.785,23.996l-15.484,208.351l-0.718,10.108h-0.01c-0.549,0.148-1.109,0.285-1.658,0.412
						c-0.549,0.127-1.098,0.243-1.648,0.349c-0.549,0.106-1.088,0.201-1.627,0.285c-0.475,0.085-0.95,0.148-1.415,0.201
						c-0.243,0.032-0.486,0.063-0.718,0.085c-1.077,0.127-2.133,0.211-3.168,0.253c-0.338,0.021-0.676,0.032-1.014,0.042
						c-1.267,0.042-2.514,0.032-3.728-0.021c-1.088-0.042-2.144-0.116-3.179-0.222c-0.158-0.011-0.306-0.032-0.465-0.053
						c-0.19-0.011-0.37-0.032-0.549-0.063c-1.003-0.106-1.965-0.243-2.894-0.401c-0.349-0.063-0.687-0.127-1.014-0.19
						c-0.264-0.042-0.518-0.095-0.771-0.137c-0.433-0.085-0.856-0.18-1.267-0.275c-0.211-0.042-0.412-0.085-0.613-0.137
						c-1.795-0.412-3.348-0.866-4.594-1.267c-0.37-0.116-0.718-0.232-1.035-0.338c-0.591-0.211-1.088-0.401-1.479-0.539
						c-0.021-0.021-0.042-0.032-0.074-0.032c-0.074-0.032-0.148-0.053-0.211-0.084c-0.454-0.18-0.697-0.285-0.697-0.285v-0.011
						l0.676-9.315c-0.148-0.106,2.081-29.615,3.845-53.411v-0.053c1.193-15.99,2.176-29.383,2.091-29.446l1.796-24.979l6.263-82.255
						l5.376-70.764l2.155-28.274c-0.01,1.046,0.011,3.718,0.549,6.464l0.084,0.465c0.159,0.75,0.349,1.5,0.623,2.207
						c0.053,0.232,0.148,0.444,0.232,0.665c0.074,0.201,0.159,0.391,0.243,0.581c0.085,0.18,0.169,0.37,0.275,0.539
						c0.063,0.127,0.137,0.253,0.211,0.38c0.032,0.063,0.063,0.116,0.106,0.169c0.042,0.063,0.074,0.116,0.106,0.18
						c0.085,0.116,0.158,0.222,0.243,0.327c0.074,0.116,0.158,0.232,0.253,0.338c0.127,0.137,0.254,0.285,0.391,0.422
						c0.042,0.042,0.085,0.085,0.127,0.127v0.01c0,0,0.011,0.011,0.032,0.021h0.01c0.19,0.179,0.37,0.327,0.581,0.475
						c0.169,0.116,0.349,0.222,0.528,0.317c0.38,0.19,0.782,0.338,1.215,0.423c0.211,0.053,0.433,0.085,0.665,0.095
						c0.391,0.032,0.782,0.021,1.151-0.01c0.401-0.032,0.792-0.106,1.172-0.211c0.327-0.095,0.655-0.211,0.961-0.348l0.38-0.19
						c1.215-0.623,2.239-1.563,3.095-2.609c0.18-0.201,0.338-0.412,0.486-0.623c0.032-0.042,0.074-0.095,0.095-0.137
						c0.19-0.264,0.37-0.518,0.539-0.782c0.053-0.063,0.095-0.127,0.116-0.19c0.011-0.011,0.011-0.021,0.011-0.032
						c0.01-0.01,0.01-0.021,0.021-0.032c0.032-0.053,0.074-0.106,0.095-0.158c0.127-0.18,0.232-0.359,0.338-0.539
						c0.127-0.232,0.254-0.454,0.359-0.676c0.021-0.042,0.042-0.084,0.063-0.116c0.021-0.042,0.042-0.074,0.063-0.106
						c0.095-0.211,0.19-0.412,0.285-0.581c0-0.01,0-0.021,0-0.021c0-0.011,0.011-0.021,0.011-0.021
						c0.074-0.148,0.148-0.296,0.201-0.444c0.18-0.423,0.327-0.792,0.433-1.088c0.042-0.095,0.085-0.19,0.106-0.264
						c0-0.011,0-0.011,0-0.011c0.063-0.169,0.106-0.296,0.137-0.38c0.011-0.042,0.021-0.074,0.032-0.095
						c0.011,0.042,0.021,0.106,0.032,0.201c0.011,0.032,0.011,0.074,0.011,0.116c0.01,0.021,0.01,0.053,0.021,0.074
						c0.011,0.053,0.011,0.116,0.021,0.18c0.021,0.106,0.021,0.232,0.042,0.338c0.053,0.306,0.127,0.665,0.211,1.067
						c0.011,0.011,0.011,0.021,0.011,0.032c0,0.011,0.01,0.021,0.01,0.042c0.021,0.053,0.032,0.106,0.042,0.169
						c0.01,0.053,0.021,0.106,0.032,0.169c0.032,0.127,0.053,0.243,0.085,0.37c0.032,0.127,0.053,0.243,0.095,0.37
						c0.085,0.296,0.148,0.602,0.264,0.887c0.011,0.042,0.011,0.084,0.032,0.127c0.011,0.042,0.021,0.085,0.032,0.116
						c0.053,0.18,0.116,0.359,0.18,0.539c0.063,0.169,0.127,0.327,0.19,0.496c0.032,0.095,0.063,0.19,0.095,0.285
						c0.222,0.486,0.454,1.003,0.729,1.479c0.032,0.053,0.053,0.095,0.085,0.148c0.042,0.074,0.085,0.148,0.127,0.211
						c0.095,0.169,0.19,0.327,0.296,0.475c0.021,0.042,0.042,0.074,0.074,0.106v0.01c0.169,0.254,0.37,0.486,0.57,0.718
						c0.084,0.116,0.19,0.232,0.296,0.338c0.095,0.095,0.201,0.19,0.296,0.296l0.01,0.011h0.011c0.148,0.137,0.296,0.264,0.454,0.38
						c0.032,0.021,0.063,0.053,0.095,0.074c0.042,0.042,0.095,0.074,0.148,0.106c0.401,0.285,0.824,0.518,1.299,0.687
						c0.222,0.085,0.465,0.148,0.708,0.201c0.254,0.053,0.539,0.095,0.803,0.116c0.275,0.011,0.528,0.011,0.782-0.021
						c0.148-0.021,0.306-0.042,0.454-0.085c0.18-0.032,0.349-0.084,0.528-0.158c0.053-0.011,0.106-0.032,0.158-0.063
						c0.063-0.021,0.116-0.042,0.18-0.074c0.158-0.053,0.306-0.127,0.454-0.211h0.011c0.011-0.011,0.011-0.011,0.011-0.011
						c0.285-0.169,0.539-0.338,0.792-0.539c0.074-0.042,0.127-0.084,0.169-0.148c0.085-0.053,0.158-0.127,0.232-0.19
						c0.042-0.021,0.063-0.053,0.095-0.074c0.095-0.085,0.19-0.169,0.285-0.275c0.116-0.106,0.222-0.222,0.338-0.338
						c0.074-0.095,0.148-0.19,0.222-0.285c0.032-0.032,0.053-0.053,0.074-0.084c0.021-0.011,0.042-0.032,0.053-0.042
						c0.021-0.021,0.042-0.042,0.063-0.074c0.201-0.254,0.412-0.528,0.602-0.803c0.201-0.285,0.391-0.581,0.581-0.887
						c0.127-0.222,0.275-0.454,0.412-0.686c0.433-0.771,0.834-1.553,1.172-2.345c0.137-0.264,0.243-0.518,0.338-0.792
						c0.158-0.359,0.317-0.729,0.444-1.088c0.148-0.38,0.285-0.739,0.391-1.077C455.628,101.66,455.945,100.456,456.008,100.149z"/>
				</g>
				<g>
					<path style="fill:#FFFFFF;" d="M411.754,399.923c-0.349-0.063-0.687-0.116-1.014-0.18v-0.011
						C411.068,399.796,411.406,399.86,411.754,399.923z"/>
				</g>
				<g>
					<path style="fill:#FFFFFF;" d="M410.74,399.733v0.011c-0.264-0.053-0.518-0.095-0.771-0.148
						C410.223,399.638,410.476,399.691,410.74,399.733z"/>
				</g>
				<g>
					<path style="fill:#FFFFFF;" d="M402.46,397.578c-0.591-0.201-1.088-0.38-1.479-0.539
						C401.372,397.177,401.868,397.367,402.46,397.578z"/>
				</g>
				<g>
					<path style="fill:#C7C7C7;" d="M418.841,400.663c1.215,0.053,2.461,0.063,3.728,0.021c0.338-0.011,0.676-0.021,1.014-0.042
						c1.035-0.042,2.091-0.127,3.168-0.253c0.232-0.021,0.475-0.053,0.718-0.085c0.465-0.053,0.94-0.116,1.415-0.201
						c0.539-0.085,1.077-0.18,1.627-0.285c0.549-0.106,1.098-0.222,1.648-0.349c0.549-0.127,1.109-0.264,1.658-0.412l-2.535,38.73
						c-4.858,1.32-9.59,1.732-13.899,1.648c-0.644-0.011-1.289-0.042-1.912-0.085c-0.338-0.01-0.665-0.032-0.993-0.063
						c-0.317-0.01-0.623-0.042-0.929-0.074c-0.602-0.053-1.204-0.116-1.785-0.19c-1.141-0.137-2.229-0.306-3.264-0.486
						c-0.296-0.053-0.591-0.106-0.877-0.169c-0.782-0.148-1.521-0.306-2.218-0.475c-0.422-0.095-0.824-0.19-1.204-0.296
						c-0.243-0.063-0.486-0.127-0.729-0.19c-0.94-0.254-1.785-0.507-2.524-0.75c-0.37-0.116-0.708-0.232-1.025-0.338
						c-0.951-0.338-1.648-0.613-2.049-0.771c-0.063-0.032-0.127-0.053-0.18-0.074c-0.148-0.074-0.232-0.106-0.232-0.106l2.535-38.73
						c0,0,0.243,0.106,0.697,0.285c0.063,0.032,0.137,0.053,0.211,0.084c0.032,0,0.053,0.011,0.074,0.032
						c0.391,0.158,0.887,0.338,1.479,0.539c0.317,0.106,0.665,0.222,1.035,0.338c1.246,0.401,2.799,0.855,4.594,1.267
						c0.201,0.053,0.401,0.095,0.613,0.137c0.412,0.095,0.834,0.19,1.267,0.275c0.253,0.053,0.507,0.095,0.771,0.148
						c0.327,0.063,0.665,0.116,1.014,0.18c0.929,0.158,1.89,0.296,2.894,0.401c0.18,0.032,0.359,0.053,0.549,0.063
						c0.158,0.021,0.306,0.042,0.465,0.053C416.697,400.546,417.753,400.62,418.841,400.663z"/>
				</g>
				<g>
					<path style="fill:#CD4239;" d="M400.95,436.657c0.739,0.243,1.584,0.496,2.524,0.75c0.243,0.063,0.486,0.127,0.729,0.19
						c0.38,0.106,0.782,0.201,1.204,0.296c0.697,0.169,1.436,0.327,2.218,0.475c0.285,0.063,0.581,0.116,0.877,0.169
						c1.035,0.19,2.123,0.349,3.264,0.486c0.581,0.074,1.183,0.137,1.785,0.19c0.306,0.032,0.613,0.063,0.929,0.074
						c0.327,0.032,0.655,0.053,0.993,0.063c0.623,0.042,1.267,0.074,1.912,0.085c4.309,0.085,9.041-0.327,13.899-1.648l-1.31,18.282
						l-0.887,12.294l-0.085,1.225c-17.765,4.827-33.808-2.408-33.808-2.408l0.127-1.827v-0.011l1.162-16.149l0.982-13.825
						c0,0,0.084,0.032,0.232,0.106c0.053,0.021,0.116,0.042,0.18,0.074c0.401,0.158,1.098,0.433,2.049,0.771
						C400.242,436.424,400.58,436.541,400.95,436.657z"/>
				</g>
				<g>
					<path style="fill:#B22522;" d="M396.482,449.194l-1.162,16.149l-12.125-5.196v-13.994
						C386.427,447.599,391.729,449.532,396.482,449.194z"/>
				</g>
				<g>
					<path style="fill:#FFFFFF;" d="M371.757,74.02l3.337,17.892l1.352,7.224c0,0-6.421,12.653-16.592,13.35
						c-10.16,0.697-15.748-14.385-15.748-14.385l0.19-1.098c0,0,20.944,5.862,26.584-19.518c0-0.011,0.01-0.032,0.01-0.042
						C371.261,76.375,371.556,75.234,371.757,74.02z"/>
				</g>
				<g>
					<path style="fill:#29275F;" d="M321.737,449.278c-6.728-0.433-10.266-3.031-11.956-4.88c-0.993-1.088-1.352-1.922-1.352-1.922
						V341.918l2.081-98.108c5.313,3.126,20.669,10.731,44.306,10.815c24.398,0.074,37.906-11.291,41.972-15.388l7.731,94.612v0.053
						c-1.764,23.796-3.992,53.305-3.845,53.411l-0.676,9.315v0.011l-2.535,38.73l-0.982,13.825
						c-4.753,0.338-10.055-1.595-13.287-3.042c-1.848-0.834-3.01-1.5-3.01-1.5l-10.298-87.071l-15.653-84.948l-7.055,63.804
						l-5.038,107.74c0,0-1.035,0.613-2.788,1.405C335.71,447.261,328.94,449.743,321.737,449.278z"/>
				</g>
				<g>
					<path style="fill:#29275F;" d="M355.576,91.858c2.081-0.57,11.861-4.341,15.304-14.374
						c-5.64,25.38-26.584,19.518-26.584,19.518l0.475-2.746l0.517-3.021c0.232,0.222,0.433,0.401,0.602,0.528
						C348.067,93.453,352.44,92.725,355.576,91.858z"/>
				</g>
				<g>
					<path style="fill:#FFFFFF;" d="M367.342,38.131c2.905,2.503,2.017,9.178,2.355,13.361c0.328,4.182,4.352,4.784,4.352,4.784
						c0.782-0.148,1.605-0.137,2.376,0.042c0.528,0.137,1.035,0.348,1.5,0.623c1.088,0.623,1.986,1.584,2.588,2.693
						c0.845,1.584,1.077,3.464,0.834,5.228c-0.348,2.598-1.7,5.049-3.707,6.738c-1.637,1.394-3.728,2.25-5.883,2.419
						c-0.201,1.215-0.496,2.355-0.866,3.422c0,0.01-0.01,0.032-0.01,0.042c-3.443,10.034-13.223,13.804-15.304,14.374
						c-3.137,0.866-7.509,1.595-9.685-0.095c-0.169-0.127-0.37-0.306-0.602-0.528c-2.778-2.609-9.875-11.248-10.794-16.487
						c-0.697-3.939-0.253-14.543,0.085-20.595c0.148-2.619,0.275-4.394,0.275-4.394h0.021c0-0.813,0.053-1.626,0.148-2.408
						c0.042-0.401,0.106-0.792,0.18-1.183c0.063-0.348,0.137-0.708,0.222-1.046c0.042-0.211,0.095-0.422,0.169-0.623
						c0.127-0.528,0.296-1.056,0.486-1.563c0.053-0.159,0.116-0.317,0.18-0.465c0.074-0.201,0.158-0.401,0.243-0.591
						c0.095-0.222,0.19-0.444,0.306-0.655c0.032-0.106,0.085-0.201,0.137-0.296c0-0.032,0.011-0.053,0.032-0.074
						c0-0.011,0.011-0.011,0.011-0.011c0.021-0.063,0.042-0.116,0.074-0.169h0.01c0,0,0.011,0,0.042,0.021
						c0.011,0.011,0.042,0.032,0.074,0.063c0.032,0.011,0.074,0.042,0.116,0.084c0.063,0.042,0.148,0.106,0.243,0.169
						c0.095,0.063,0.201,0.137,0.317,0.211c0.116,0.074,0.254,0.148,0.401,0.232c0.074,0.042,0.148,0.084,0.222,0.127
						c0.158,0.084,0.338,0.18,0.518,0.264c1.817,0.877,4.932,1.891,9.474,1.722C356.295,43.274,364.448,35.638,367.342,38.131z"/>
				</g>
				<g>
					<path style="fill:#29275F;" d="M377.936,43.422c-0.116,7.763-0.042,12.199-0.011,13.519c-0.465-0.275-0.972-0.486-1.5-0.623
						c-0.771-0.18-1.595-0.19-2.376-0.042c0,0-4.024-0.602-4.352-4.784c-0.338-4.183,0.549-10.858-2.355-13.361
						c-2.894-2.493-11.048,5.143-18.863,5.439c-4.542,0.169-7.657-0.845-9.474-1.722c-0.18-0.084-0.359-0.18-0.518-0.264
						c-0.074-0.042-0.148-0.084-0.222-0.127c-0.148-0.085-0.285-0.158-0.401-0.232c-0.116-0.074-0.222-0.148-0.317-0.211
						c-0.095-0.063-0.18-0.127-0.243-0.169c-0.042-0.042-0.085-0.074-0.116-0.084c-0.032-0.032-0.063-0.053-0.074-0.063
						c-0.032-0.032-0.042-0.042-0.042-0.042c0,0.011-0.01,0.011-0.01,0.021c-0.032,0.053-0.053,0.106-0.074,0.169
						c0,0-0.011,0-0.011,0.011c-0.021,0.021-0.032,0.042-0.032,0.074c-0.053,0.095-0.106,0.19-0.137,0.296
						c-0.116,0.211-0.211,0.433-0.306,0.655c-0.085,0.19-0.169,0.391-0.243,0.591c-0.063,0.148-0.127,0.306-0.18,0.465
						c-0.19,0.507-0.359,1.035-0.486,1.563c-0.074,0.201-0.127,0.412-0.169,0.623c-0.085,0.338-0.158,0.697-0.222,1.046
						c-0.074,0.391-0.137,0.782-0.18,1.183c-0.095,0.782-0.148,1.595-0.148,2.408h-0.021c0,0-0.127,1.774-0.275,4.394l-0.454-0.021
						c-12.114-1.901-4.658-13.287-4.658-13.287c-7.15-10.604,0.591-11.998,8.809-11.449c8.228,0.549,15.346-4.985,22.687-5.724
						c7.34-0.729,9.928,6.833,9.928,6.833C376.098,29.914,378.062,33.991,377.936,43.422z"/>
				</g>
				<g>
					<path style="fill:#B22522;" d="M321.737,449.278c7.203,0.465,13.973-2.017,17.617-3.697v14.565l-19.159,8.217h-34.146
						c0,0,0.507-7.604,3.042-10.477c2.545-2.873,12.632-3.042,12.632-3.042l8.059-10.446
						C311.471,446.247,315.009,448.845,321.737,449.278z"/>
				</g>
				<g>
					<path style="fill:#FFFFFF;" d="M323.986,239.258c0.296,0.729-0.486,2.693-3.031,1.859c-2.545-0.834-10.667-7.826-10.667-7.826
						s-0.444-0.021-1.172-0.063c-2.334-0.169-7.583-0.697-10.572-2.197c-3.042-1.51-7.013-7.678-8.639-10.372
						c4.711-1.531,12.146-4.668,14.448-9.717l2.017,2.767c0,0,2.588-0.613,5.482-1.077c2.556-0.412,5.365-0.708,6.855-0.391
						c3.179,0.686,18.494,9.981,16.835,12.04c-1.616,1.996-6.443,0.042-6.749-0.084c0.264,0.296,4.478,4.922,5.471,6.158
						c1.035,1.278,0.782,2.049,0.782,2.049s-1.32,1.563-3.612,1.278c-2.091-0.264-8.428-5.439-9.601-6.4
						c1.51,1.32,11.481,10.012,11.259,10.509c-0.243,0.539-1.267,2.007-4.013,1.373c-2.651-0.623-6.221-2.429-6.443-2.535
						C322.687,236.734,323.712,238.54,323.986,239.258z"/>
				</g>
				<g>
					<path style="fill:#CD4239;" d="M320.955,241.117c2.545,0.834,3.327-1.13,3.031-1.859c-0.275-0.718-1.299-2.524-1.352-2.63
						c0.222,0.106,3.792,1.912,6.443,2.535c2.746,0.634,3.771-0.834,4.013-1.373c0.222-0.496-9.749-9.189-11.259-10.509
						c1.172,0.961,7.509,6.136,9.601,6.4c2.292,0.285,3.612-1.278,3.612-1.278s0.254-0.771-0.782-2.049
						c-0.993-1.236-5.207-5.862-5.471-6.158c0.306,0.127,5.133,2.081,6.749,0.084c1.658-2.06-13.656-11.354-16.835-12.04
						c-1.489-0.317-4.299-0.021-6.855,0.391l-2.788-53.242l-21.134,12.78c0,0,3.221,4.182,4.256,6.305
						c1.024,2.133,12.621,31.273,12.621,31.273c-0.116,0.412-0.264,0.803-0.454,1.193c-2.302,5.048-9.738,8.185-14.448,9.717
						c-2.355,0.771-4.035,1.13-4.035,1.13s-16.73-31.051-20.257-39.342c-3.528-8.301-3.76-7.858-2.936-12.78
						c1.468-8.756,32.15-54.604,39.49-59.748c7.34-5.133,37.357-13.287,37.357-13.287c1.468-1.869,5.249-2.376,5.249-2.376
						l-0.475,2.746l-0.19,1.098c0,0,5.587,15.082,15.748,14.385c10.171-0.697,16.592-13.35,16.592-13.35l-1.352-7.224l0.211-0.042
						c0,0,4.964,2.936,6.136,5.724c0,0,25.316,12.23,29.647,14.924c3.285,2.038,7.224,10.086,8.956,13.889l-5.376,70.764
						c-2.281-4.964-9.727-19.117-13.804-26.827l-5.914,32.794l3.168,34.653c0,0-0.444,0.549-1.331,1.447
						c-4.066,4.098-17.575,15.462-41.972,15.388c-23.637-0.085-38.994-7.689-44.306-10.815c-1.373-0.813-2.081-1.32-2.081-1.32
						l0.686-9.263c0.729,0.042,1.172,0.063,1.172,0.063S318.41,240.283,320.955,241.117z"/>
				</g>
			</g>
		</g>
		<g id="XMLID_00000158719123950256270810000014606497970177144725_">
			<g>
				<g>
					<path style="fill:#29275F;" d="M450.939,111.879c-0.167,0-0.335-0.056-0.474-0.169c-0.299-0.246-0.365-0.676-0.148-0.997
						c0.011-0.016,0.054-0.074,0.066-0.089c0.142-0.179,0.39-0.325,0.618-0.325h0.011c0.277,0,0.532,0.153,0.662,0.398
						c0.131,0.245,0.114,0.542-0.041,0.772c-0.047,0.069-0.09,0.119-0.154,0.184C451.332,111.802,451.135,111.879,450.939,111.879z"
						/>
				</g>
				<g>
					<path style="fill:#29275F;" d="M440.935,71.358c-0.379,0-0.704-0.286-0.745-0.671c-0.043-0.411,0.255-0.78,0.666-0.824
						c2.566-0.276,4.809-0.942,6.663-1.979c0.18-0.099,0.389-0.122,0.584-0.063c0.194,0.059,0.357,0.195,0.45,0.376l0.011,0.021
						c0.184,0.359,0.05,0.8-0.302,0.997c-2.028,1.133-4.467,1.854-7.249,2.14C440.987,71.357,440.961,71.358,440.935,71.358z"/>
				</g>
				<g>
					<path style="fill:#29275F;" d="M446.507,114.355c-0.121,0-0.231-0.004-0.339-0.013c-0.295-0.023-0.612-0.06-0.896-0.119
						c-0.286-0.062-0.566-0.137-0.821-0.234c-0.498-0.176-0.983-0.432-1.467-0.776c-0.025-0.013-0.111-0.065-0.203-0.147
						c-0.016-0.013-0.03-0.024-0.037-0.03c-0.174-0.127-0.328-0.257-0.48-0.396c-0.044-0.031-0.085-0.067-0.121-0.108
						c-0.054-0.059-0.11-0.113-0.167-0.167l-0.101-0.098c-0.15-0.165-0.253-0.281-0.347-0.396c-0.208-0.239-0.427-0.496-0.613-0.776
						c-0.003-0.004-0.006-0.009-0.009-0.013c-0.029-0.04-0.057-0.082-0.082-0.126c-0.109-0.157-0.21-0.324-0.31-0.501l-0.203-0.346
						c-0.273-0.471-0.495-0.956-0.71-1.425l-0.17-0.484c-0.049-0.091-0.12-0.278-0.19-0.466c-0.064-0.186-0.117-0.358-0.168-0.528
						c-0.037-0.084-0.056-0.159-0.068-0.206l0.001-0.001c-0.011-0.033-0.02-0.066-0.026-0.096c-0.08-0.21-0.14-0.429-0.197-0.648
						l-0.066-0.246c-0.029-0.085-0.055-0.191-0.079-0.3c-0.037-0.142-0.06-0.248-0.077-0.341c-0.09,0.169-0.18,0.349-0.279,0.548
						c-0.034,0.075-0.065,0.137-0.103,0.191c-0.094,0.199-0.192,0.379-0.294,0.565l-0.09,0.164c-0.14,0.237-0.252,0.426-0.386,0.615
						c0.002,0-0.012,0.022-0.033,0.053c-0.014,0.034-0.028,0.064-0.044,0.092c-0.051,0.104-0.114,0.206-0.191,0.301
						c-0.127,0.206-0.307,0.46-0.498,0.726c-0.03,0.049-0.066,0.101-0.103,0.149c-0.172,0.243-0.348,0.477-0.548,0.7
						c-1,1.223-2.121,2.165-3.311,2.776l-0.387,0.193c-0.353,0.159-0.708,0.288-1.086,0.398c-0.452,0.126-0.895,0.205-1.323,0.239
						c-0.457,0.04-0.875,0.043-1.271,0.01c-0.254-0.011-0.528-0.05-0.788-0.115c-0.483-0.105-0.937-0.264-1.367-0.479
						c-0.22-0.116-0.425-0.237-0.617-0.37c-0.228-0.159-0.422-0.316-0.623-0.503c-0.02-0.015-0.039-0.032-0.058-0.049
						c-0.027-0.023-0.052-0.046-0.072-0.069l-0.072-0.07c-0.139-0.139-0.24-0.252-0.34-0.363l-0.104-0.115
						c-0.126-0.139-0.236-0.29-0.332-0.44c-0.056-0.063-0.143-0.188-0.232-0.327l-0.084-0.13c-0.061-0.08-0.122-0.177-0.179-0.292
						c-0.058-0.095-0.13-0.237-0.2-0.38c-0.087-0.13-0.199-0.342-0.298-0.566c-0.091-0.203-0.183-0.41-0.262-0.627l-0.049-0.124
						c-0.075-0.189-0.147-0.377-0.197-0.576c-0.242-0.635-0.446-1.36-0.639-2.276l-0.089-0.485c-0.52-2.652-0.575-5.278-0.561-6.606
						c0.011-0.291,0.011-0.45,0.011-0.458c0-0.104,0.021-0.206,0.064-0.301l11.902-27.091c0.127-0.291,0.42-0.475,0.74-0.446
						l0.444,0.042c0.195,0.014,0.352,0.026,0.509,0.046l0.851,0.059c0.15,0.009,0.315,0.02,0.487,0.02
						c0.232,0.011,0.408,0.021,0.629,0.021h0.002c0.491,0.01,1.004,0.021,1.526,0c0.455-0.011,0.897-0.031,1.352-0.062
						c0.289-0.02,0.577-0.05,0.867-0.09c2.603-0.269,4.848-0.928,6.696-1.961c0.203-0.112,0.447-0.125,0.661-0.035
						c0.214,0.091,0.373,0.277,0.432,0.502l8.133,31.537c0.04,0.156,0.028,0.318-0.029,0.464c-0.083,0.377-0.412,1.596-0.95,3.13
						c-0.072,0.208-0.153,0.428-0.237,0.657l-0.155,0.425c-0.132,0.373-0.298,0.761-0.465,1.138
						c-0.089,0.267-0.21,0.551-0.358,0.835c-0.292,0.691-0.688,1.481-1.183,2.365l-0.186,0.31c-0.079,0.13-0.157,0.258-0.229,0.382
						c-0.212,0.342-0.409,0.65-0.618,0.947c-0.217,0.297-0.428,0.585-0.649,0.85c-0.028,0.047-0.048,0.072-0.086,0.112
						c-0.028,0.027-0.057,0.053-0.086,0.079l-0.382,0.454c-0.085,0.088-0.169,0.174-0.258,0.254
						c-0.038,0.041-0.132,0.121-0.213,0.189l-0.042,0.057c-0.038,0.038-0.079,0.073-0.125,0.102
						c0.019-0.009-0.004,0.014-0.054,0.048c-0.11,0.097-0.193,0.165-0.281,0.221l-0.087,0.087c-0.276,0.219-0.548,0.404-0.868,0.596
						c-0.038,0.026-0.078,0.049-0.121,0.067c-0.155,0.086-0.311,0.16-0.475,0.219c-0.056,0.026-0.107,0.047-0.162,0.067
						c-0.074,0.038-0.151,0.068-0.23,0.09c-0.221,0.087-0.423,0.146-0.63,0.183c-0.095,0.03-0.272,0.058-0.44,0.082
						C446.896,114.344,446.689,114.355,446.507,114.355z M443.188,111.455c0.016,0.012,0.03,0.025,0.044,0.038
						c0.126,0.117,0.252,0.226,0.388,0.325c0.012,0.009,0.073,0.057,0.085,0.066c0.018,0.015,0.08,0.066,0.096,0.082
						c0.422,0.287,0.787,0.48,1.168,0.616c0.204,0.077,0.41,0.129,0.616,0.174c0.217,0.045,0.47,0.072,0.702,0.091
						c0.223,0.017,0.446,0.007,0.661-0.01c0.096-0.015,0.207-0.029,0.312-0.059c0.19-0.038,0.306-0.073,0.447-0.131
						c0.044-0.018,0.089-0.032,0.136-0.041c0.031-0.016,0.217-0.103,0.25-0.114c0.104-0.035,0.2-0.084,0.298-0.139
						c0.027-0.018,0.055-0.034,0.084-0.047c0.234-0.141,0.446-0.284,0.658-0.451l0.154-0.136c0.105-0.076,0.131-0.101,0.156-0.125
						c0.026-0.023,0.068-0.058,0.111-0.089c0.006-0.005,0.014-0.011,0.022-0.018c0.027-0.031,0.081-0.09,0.082-0.091
						c0.095-0.083,0.149-0.129,0.188-0.167c0.095-0.087,0.155-0.15,0.218-0.215l0.283-0.341c0.037-0.048,0.084-0.096,0.138-0.142
						c0.032-0.046,0.074-0.099,0.103-0.128c0.154-0.191,0.346-0.452,0.536-0.714c0.187-0.264,0.368-0.547,0.551-0.841
						c0.064-0.113,0.149-0.253,0.235-0.395l0.168-0.278c0.46-0.82,0.832-1.564,1.128-2.256c0.145-0.282,0.235-0.503,0.318-0.742
						c0.175-0.401,0.325-0.752,0.446-1.094l0.161-0.44c0.08-0.218,0.157-0.428,0.228-0.631c0.487-1.389,0.797-2.508,0.893-2.921
						l-7.848-30.432c-1.847,0.88-3.991,1.45-6.392,1.697c-0.298,0.042-0.621,0.075-0.945,0.097
						c-0.476,0.033-0.941,0.054-1.406,0.065c-0.538,0.02-1.079,0.01-1.599,0c-0.212,0-0.433-0.011-0.644-0.022
						c-0.172-0.01-0.364-0.01-0.548-0.022l-0.906-0.064c-0.154-0.02-0.272-0.028-0.383-0.036l-11.624,26.456
						c-0.002,0.082-0.004,0.193-0.01,0.33c-0.012,1.251,0.04,3.762,0.536,6.292l0.086,0.474c0.178,0.837,0.364,1.502,0.585,2.071
						c0.014,0.034,0.025,0.069,0.032,0.104c0.032,0.144,0.088,0.277,0.143,0.412l0.059,0.151c0.071,0.195,0.15,0.37,0.228,0.543
						c0.07,0.159,0.147,0.306,0.235,0.445c0.093,0.18,0.147,0.29,0.213,0.402c0.014,0.017,0.071,0.115,0.084,0.134
						c0.065,0.099,0.105,0.16,0.137,0.213c0.045,0.07,0.105,0.155,0.173,0.24c0.098,0.145,0.155,0.227,0.223,0.301l0.11,0.123
						c0.082,0.091,0.166,0.185,0.255,0.274l0.078,0.078c0.03,0.022,0.058,0.046,0.083,0.072c0.159,0.15,0.31,0.274,0.487,0.397
						c0.142,0.098,0.296,0.188,0.45,0.27c0.302,0.151,0.642,0.269,1.023,0.353c0.185,0.046,0.358,0.07,0.539,0.078
						c0.34,0.026,0.674,0.025,1.054-0.008c0.338-0.026,0.686-0.089,1.036-0.186c0.303-0.088,0.594-0.194,0.854-0.311l0.352-0.176
						c0.998-0.512,1.959-1.325,2.85-2.413c0.181-0.204,0.321-0.392,0.453-0.58l0.679,0.343l-0.618-0.425
						c0.221-0.315,0.394-0.557,0.555-0.81c0,0,0.038-0.054,0.054-0.076c0.022-0.068,0.054-0.133,0.094-0.193
						c0.011-0.019,0.103-0.154,0.114-0.172c0.109-0.154,0.2-0.309,0.292-0.464l0.094-0.169c0.087-0.16,0.173-0.314,0.246-0.47
						c0.043-0.084,0.078-0.15,0.111-0.201c-0.007-0.001,0.021-0.056,0.053-0.105c0.054-0.117,0.129-0.266,0.206-0.416
						c0.011-0.043,0.024-0.084,0.041-0.118l0.06-0.13c0.056-0.122,0.109-0.238,0.168-0.348c0.144-0.347,0.288-0.702,0.39-0.987
						l0.091-0.229c0.006-0.02,0.012-0.039,0.019-0.058l0.121-0.335c0.022-0.079,0.047-0.148,0.079-0.212
						c0.14-0.28,0.432-0.447,0.752-0.41c0.311,0.034,0.569,0.258,0.646,0.562c0.015,0.059,0.031,0.143,0.045,0.265
						c0.005,0.022,0.009,0.043,0.012,0.058c0.002,0.014,0.005,0.035,0.008,0.058h0.001c0.004,0.019,0.008,0.046,0.011,0.075
						c0.008,0.045,0.014,0.092,0.018,0.142c0.029,0.083,0.039,0.233,0.047,0.354c0.048,0.301,0.117,0.638,0.195,1.013
						c0.002,0.007,0.004,0.013,0.006,0.02c0.003,0.01,0.006,0.021,0.009,0.032c0.025,0.075,0.041,0.145,0.054,0.21
						c0.017,0.063,0.03,0.123,0.041,0.18c0.001,0.002,0.019,0.101,0.019,0.104c0.014,0.076,0.027,0.156,0.048,0.23l0.034,0.141
						c0.015,0.064,0.028,0.127,0.05,0.194l0.085,0.307c0.047,0.18,0.093,0.361,0.162,0.533c0.016,0.037,0.027,0.075,0.036,0.113
						c0.002,0.008,0.007,0.031,0.011,0.054c0.005,0.016,0.01,0.031,0.014,0.047c0.016,0.033,0.028,0.066,0.038,0.101
						c0.049,0.168,0.1,0.336,0.157,0.504c0.051,0.133,0.106,0.284,0.172,0.424l0.143,0.413c0.2,0.437,0.406,0.888,0.641,1.293
						l0.215,0.366c0.083,0.147,0.164,0.282,0.254,0.409c0.014,0.02,0.027,0.039,0.039,0.06c0.035,0.043,0.066,0.089,0.092,0.139
						c0.142,0.203,0.307,0.391,0.471,0.581c0.093,0.113,0.179,0.209,0.259,0.298l0.082,0.081
						C443.074,111.34,443.132,111.397,443.188,111.455z M449.546,111.513L449.546,111.513L449.546,111.513z M449.572,111.491
						c-0.007,0.005-0.012,0.009-0.017,0.013c0.005-0.003,0.009-0.006,0.013-0.009C449.569,111.494,449.57,111.492,449.572,111.491z
						 M450.446,110.587L450.446,110.587L450.446,110.587z M450.541,110.471c-0.019,0.019-0.033,0.036-0.046,0.051
						c0.017-0.015,0.035-0.028,0.053-0.042L450.541,110.471z M450.677,110.378l0.007,0.015L450.677,110.378z M442.065,110.135
						c0,0,0,0,0.001,0C442.065,110.135,442.065,110.135,442.065,110.135z M440.404,106.523c0,0.001,0,0.001,0.001,0.001
						C440.404,106.524,440.404,106.523,440.404,106.523z M440.4,106.472c0,0.001,0,0.001,0.001,0.002
						C440.4,106.473,440.4,106.473,440.4,106.472z"/>
				</g>
				<g>
					<path style="fill:#29275F;" d="M441.17,110.838c-0.244,0-0.482-0.119-0.627-0.336c-0.051-0.077-0.103-0.166-0.153-0.256
						c-0.013-0.022-0.024-0.045-0.035-0.068c-0.018-0.029-0.039-0.062-0.043-0.069c-0.21-0.357-0.091-0.817,0.267-1.027
						c0.356-0.207,0.811-0.091,1.022,0.26l0,0c0,0,0,0,0,0.001c0,0,0,0,0.001,0.001c0,0,0,0,0,0.001c0,0,0,0.001,0.001,0.001
						c0,0,0,0,0,0c0,0,0.001,0,0.001,0.001c0,0,0,0.001,0,0.001c0,0.001,0.001,0.001,0.001,0.002l0.094,0.146
						c0.002,0.004,0.005,0.009,0.007,0.013l0.116,0.211c0.199,0.352,0.084,0.797-0.261,1.009
						C441.438,110.802,441.303,110.838,441.17,110.838z"/>
				</g>
				<g>
					<path style="fill:#29275F;" d="M440.228,109c-0.311,0-0.6-0.193-0.707-0.5l0,0c-0.001-0.001-0.001-0.002-0.001-0.002
						c0,0,0,0,0-0.001s-0.002,0.001-0.001-0.002c0-0.001,0-0.002,0-0.002c-0.001,0-0.001-0.001-0.001-0.001v-0.001
						c0-0.001-0.001-0.001-0.001-0.002c0,0,0-0.001,0-0.001c0,0,0-0.001-0.001-0.001v-0.001c0,0,0-0.002,0-0.002l-0.173-0.484
						c-0.035-0.088-0.068-0.178-0.102-0.268c-0.032-0.087-0.048-0.176-0.048-0.264c0-0.303,0.186-0.589,0.486-0.702
						c0.387-0.146,0.82,0.051,0.966,0.438l0.102,0.265c0.024,0.06,0.05,0.119,0.076,0.176c0.014,0.027,0.025,0.056,0.034,0.085
						l0.083,0.284c0.13,0.393-0.084,0.817-0.477,0.947C440.385,108.988,440.306,109,440.228,109z"/>
				</g>
				<g>
					<path style="fill:#29275F;" d="M439.943,108.219c-0.311,0-0.601-0.194-0.708-0.503c-0.077-0.221-0.139-0.398-0.191-0.574
						c-0.006-0.016-0.02-0.065-0.033-0.12c-0.003-0.009-0.005-0.017-0.007-0.024c-0.016-0.062-0.023-0.125-0.023-0.186
						c0-0.335,0.227-0.64,0.566-0.726c0.393-0.102,0.801,0.136,0.907,0.531c0.016,0.033,0.028,0.066,0.038,0.101
						c0.049,0.168,0.1,0.336,0.157,0.504c0.137,0.392-0.07,0.819-0.462,0.955C440.108,108.206,440.025,108.219,439.943,108.219z"/>
				</g>
				<g>
					<path style="fill:#29275F;" d="M461.889,166.773c-0.16,0-0.321-0.051-0.458-0.157c-0.328-0.254-0.388-0.725-0.134-1.052
						c3.456-4.46,7.65-10.175,8.095-11.603c0.399-1.303-0.512-4.654-1.244-7.346c-0.41-1.51-0.798-2.936-0.987-4.05
						c-0.27-1.587-2.883-7.51-5.188-12.736c-2.712-6.147-4.377-9.967-4.433-10.986c-0.076-1.28-0.682-3.038-1.525-3.642
						c-0.117-0.084-0.234-0.142-0.352-0.173l-0.67,9.026c-0.035,0.468-0.538,0.8-0.982,0.66c-3.409-1.064-7.577-2.075-8.588-1.843
						c-0.579,0.135-0.977,0.412-1.143,0.799c-0.146,0.341-0.101,0.757,0.125,1.143c0.151,0.259,0.134,0.584-0.046,0.826
						c-0.18,0.242-0.487,0.354-0.778,0.282c-0.982-0.238-2.527-0.28-2.866,0.255c-0.63,1.01-0.685,2.269-0.119,2.8
						c0.215,0.202,0.292,0.512,0.195,0.791c-0.096,0.279-0.347,0.476-0.642,0.503c-0.178,0.019-1.1,0.161-1.146,1.015
						c-0.076,1.254,0.418,1.736,1.239,2.107c1.113,0.502,5.555,2.628,5.814,2.759c0.341,0.171,0.5,0.571,0.368,0.929
						c-0.131,0.358-0.514,0.558-0.881,0.471c-1.056-0.256-5.936-1.244-6.673-1.111c-0.056,0.04-0.306,0.416-0.351,0.897
						c-0.014,0.145-0.022,0.498,0.182,0.655c0.657,0.504,8.76,4.473,13.713,6.856c0.366,0.176,0.525,0.612,0.359,0.983
						c-0.025,0.056-2.459,5.607-0.275,10.464c0.17,0.378,0.002,0.822-0.376,0.992c-0.375,0.169-0.821,0.002-0.991-0.376
						c-2.012-4.474-0.634-9.265,0.004-11.014c-3.121-1.505-12.489-6.045-13.355-6.721c-0.596-0.46-0.865-1.238-0.735-2.132
						c0.113-0.791,0.571-1.722,1.338-2.02c0.293-0.114,0.992-0.086,1.849,0.016c-0.253-0.118-0.462-0.215-0.607-0.28
						c-1.529-0.691-2.223-1.856-2.12-3.56c0.06-1.11,0.725-1.758,1.414-2.103c-0.419-1.071-0.248-2.478,0.525-3.72
						c0.684-1.074,2.171-1.184,3.256-1.103c-0.027-0.41,0.038-0.817,0.201-1.196c0.356-0.831,1.132-1.423,2.184-1.669
						c1.577-0.357,6.313,0.956,8.48,1.602l0.649-8.753c0.023-0.316,0.243-0.583,0.549-0.668c0.745-0.205,1.48-0.069,2.123,0.391
						c1.339,0.957,2.054,3.147,2.151,4.776c0.05,0.816,2.41,6.166,4.308,10.466c2.455,5.565,4.993,11.32,5.294,13.09
						c0.178,1.042,0.556,2.434,0.957,3.908c0.863,3.177,1.757,6.462,1.228,8.182c-0.616,1.983-6.039,9.108-8.342,12.08
						C462.336,166.673,462.114,166.773,461.889,166.773z"/>
				</g>
				<g>
					<path style="fill:#29275F;" d="M439.342,106.18c-0.329,0-0.631-0.218-0.723-0.55c-0.02-0.07-0.036-0.143-0.051-0.215
						l-0.078-0.374c-0.078-0.388,0.157-0.77,0.539-0.874c0.385-0.106,0.779,0.108,0.906,0.481c0.029,0.085,0.047,0.17,0.063,0.247
						c0,0.002,0.019,0.101,0.019,0.104c0.006,0.031,0.012,0.063,0.018,0.094l0.034,0.152c0.102,0.398-0.137,0.804-0.534,0.91
						C439.469,106.173,439.405,106.18,439.342,106.18z"/>
				</g>
				<g>
					<path style="fill:#29275F;" d="M437.555,106.434c-0.129,0-0.26-0.033-0.379-0.104c-0.342-0.201-0.468-0.632-0.289-0.985
						c0.015-0.03,0.029-0.056,0.044-0.081c-0.002-0.003,0.004-0.018,0.015-0.037c0.045-0.091,0.089-0.177,0.131-0.261
						c0.059-0.12,0.116-0.233,0.174-0.336c0.201-0.358,0.651-0.487,1.013-0.292c0.36,0.196,0.496,0.646,0.305,1.008
						c-0.049,0.094-0.099,0.19-0.15,0.291c-0.037,0.079-0.075,0.162-0.113,0.247c-0.018,0.04-0.039,0.078-0.063,0.114l-0.004-0.002
						c-0.021,0.041-0.045,0.086-0.06,0.107C438.033,106.317,437.797,106.434,437.555,106.434z"/>
				</g>
				<g>
					<path style="fill:#29275F;" d="M436.68,107.955c-0.181,0-0.36-0.064-0.505-0.195c-0.162-0.148-0.245-0.352-0.245-0.556
						c0-0.081,0.014-0.163,0.04-0.242c0.021-0.074,0.055-0.145,0.099-0.209c0.001-0.002,0.037-0.054,0.038-0.056
						c0.197-0.337,0.642-0.497,0.993-0.327c0.353,0.169,0.535,0.55,0.396,0.914c-0.045,0.115-0.102,0.2-0.14,0.257
						c-0.005,0.008-0.012,0.018-0.02,0.029c-0.021,0.034-0.044,0.069-0.068,0.101c-0.011,0.013-0.021,0.025-0.031,0.037
						c-0.001,0-0.001,0.001-0.002,0.001C437.088,107.872,436.885,107.955,436.68,107.955z"/>
				</g>
				<g>
					<path style="fill:#29275F;" d="M437.975,71.529c-0.31,0-0.617-0.006-0.917-0.012c-0.226,0.012-0.425-0.011-0.639-0.022
						c-0.172-0.01-0.364-0.01-0.548-0.022l-0.906-0.064c-0.169-0.021-0.295-0.03-0.415-0.038l-0.438-0.046
						c-0.238-0.021-0.453-0.154-0.578-0.359c-0.124-0.205-0.143-0.457-0.05-0.678l6.876-16.423c0.088-0.212,0.27-0.372,0.49-0.433
						l3.687-1.024c0.201-0.054,0.414-0.026,0.592,0.083c0.177,0.108,0.302,0.285,0.344,0.488l3.2,15.41
						c0.053,0.253-0.029,0.516-0.217,0.695c-0.059,0.056-0.137,0.107-0.217,0.145c-0.05,0.026-0.103,0.046-0.157,0.06
						c-1.998,1.083-4.374,1.778-7.066,2.068c-0.301,0.042-0.624,0.076-0.948,0.098c-0.476,0.033-0.941,0.054-1.406,0.065
						C438.433,71.525,438.204,71.529,437.975,71.529z M435.261,69.927l0.709,0.049c0.15,0.009,0.315,0.02,0.487,0.02
						c0.227,0.011,0.425,0.021,0.613,0.021c0.508,0.01,1.02,0.02,1.544,0c0.455-0.011,0.897-0.031,1.352-0.062
						c0.289-0.02,0.577-0.05,0.867-0.09c2.39-0.258,4.484-0.845,6.252-1.75l-2.918-14.05l-2.564,0.712L435.261,69.927z"/>
				</g>
				<g>
					<path style="fill:#29275F;" d="M428.01,112.992c-0.048,0-0.097-0.004-0.145-0.014c-0.477-0.093-0.936-0.253-1.406-0.488
						c-0.263-0.131-0.415-0.396-0.415-0.671c0-0.113,0.025-0.228,0.079-0.336c0.186-0.369,0.636-0.52,1.006-0.335
						c0.318,0.159,0.658,0.277,1.04,0.361c0.401,0.088,0.657,0.482,0.574,0.884C428.67,112.748,428.358,112.992,428.01,112.992z"/>
				</g>
				<g>
					<path style="fill:#29275F;" d="M421.002,401.459c-0.726,0-1.459-0.016-2.192-0.048c-1.085-0.042-2.171-0.117-3.224-0.225
						c-0.142-0.009-0.298-0.029-0.465-0.053c-0.187-0.01-0.396-0.034-0.606-0.071c-0.906-0.094-1.869-0.227-2.887-0.4
						c-0.359-0.065-0.7-0.129-1.031-0.193c-0.125-0.02-0.272-0.047-0.416-0.073l-0.335-0.06c-0.463-0.091-0.893-0.188-1.313-0.284
						c-0.207-0.041-0.422-0.087-0.636-0.143c-1.518-0.349-3.086-0.78-4.633-1.279c-0.351-0.11-0.686-0.222-0.995-0.324l-0.874-0.317
						c-0.247-0.091-0.468-0.172-0.663-0.24c-0.029-0.011-0.059-0.023-0.087-0.037c-0.012-0.004-0.023-0.009-0.033-0.014
						c-0.125-0.046-0.19-0.071-0.248-0.101c-0.414-0.161-0.665-0.27-0.665-0.27c-0.273-0.119-0.451-0.39-0.451-0.689l0.678-9.381
						l0.051,0.004c-0.063-1.026,0.146-3.894,0.781-12.699c0.55-7.598,1.304-17.735,2.064-27.942l0.949-12.775
						c0.029-0.402,0.365-0.771,0.775-0.72c0.403,0.015,0.723,0.319,0.723,0.723c0,0.019-0.001,0.09-0.002,0.108l-0.949,12.774
						c-1.432,19.243-2.912,39.136-2.901,40.477c0.008,0.052,0.01,0.105,0.006,0.159l-0.638,8.785
						c0.058,0.022,0.12,0.048,0.188,0.074l-0.008,0.033c0.036,0.002,0.072,0.007,0.106,0.014l0.002-0.006
						c0.004,0.002,0.017,0.007,0.033,0.013c0.075,0.019,0.148,0.047,0.216,0.085c0.179,0.064,0.376,0.136,0.593,0.216l0.797,0.291
						c0.333,0.11,0.661,0.22,1.009,0.328c1.512,0.487,3.036,0.908,4.537,1.252c0.21,0.056,0.397,0.094,0.594,0.134
						c0.423,0.098,0.837,0.19,1.263,0.273l0.34,0.061c0.133,0.025,0.268,0.049,0.404,0.071c0.35,0.066,0.685,0.13,1.031,0.192
						c0.978,0.167,1.908,0.296,2.837,0.394c0.204,0.035,0.355,0.052,0.513,0.06c0.216,0.027,0.341,0.045,0.474,0.054
						c1.047,0.107,2.101,0.18,3.158,0.221c1.241,0.053,2.477,0.063,3.674,0.02c0.333-0.01,0.664-0.02,0.993-0.041
						c1.034-0.043,2.081-0.127,3.126-0.25c0.243-0.022,0.476-0.053,0.711-0.083c0.459-0.053,0.919-0.113,1.379-0.195
						c0.545-0.086,1.076-0.18,1.616-0.283c0.541-0.104,1.081-0.218,1.621-0.343c0.373-0.087,0.751-0.178,1.127-0.273l0.681-9.568
						c0.03-0.414,0.417-0.713,0.801-0.695c0.414,0.029,0.725,0.388,0.695,0.801l-0.719,10.107c-0.024,0.348-0.283,0.626-0.614,0.686
						c-0.542,0.146-1.093,0.279-1.633,0.404c-0.56,0.129-1.117,0.247-1.676,0.354c-0.558,0.107-1.104,0.203-1.65,0.29
						c-0.477,0.085-0.966,0.149-1.446,0.205c-0.242,0.031-0.495,0.063-0.735,0.086c-1.064,0.125-2.149,0.212-3.206,0.256
						c-0.33,0.02-0.675,0.031-1.018,0.043C422.07,401.45,421.538,401.459,421.002,401.459z M400.907,396.533l-0.093,0.439
						l0.093-0.253V396.533z"/>
				</g>
				<g>
					<path style="fill:#29275F;" d="M414.671,197.92c-0.02,0-0.038-0.001-0.058-0.002c-0.413-0.032-0.723-0.392-0.691-0.805
						l7.53-99.038c0.031-0.404,0.42-0.698,0.78-0.692c0.404,0.018,0.722,0.353,0.718,0.757c-0.013,1.271,0.039,3.782,0.535,6.312
						l0.086,0.474c0.178,0.837,0.364,1.502,0.585,2.071c0.014,0.034,0.025,0.069,0.032,0.104c0.032,0.144,0.088,0.277,0.143,0.412
						l0.059,0.151c0.071,0.195,0.15,0.37,0.228,0.543c0.086,0.184,0.148,0.323,0.226,0.448c0.092,0.174,0.157,0.286,0.223,0.399
						c0.014,0.017,0.071,0.115,0.084,0.134c0.046,0.07,0.084,0.132,0.12,0.198c0.013,0.018,0.024,0.034,0.024,0.034
						c0.056,0.076,0.107,0.149,0.165,0.221c0.098,0.145,0.155,0.227,0.223,0.301l0.11,0.123c0.082,0.091,0.166,0.185,0.255,0.274
						l0.092,0.091c0.022,0.016,0.042,0.034,0.061,0.052c0.162,0.153,0.314,0.279,0.495,0.405c0.142,0.098,0.296,0.188,0.45,0.27
						c0.331,0.165,0.666,0.282,1.007,0.349c0.201,0.05,0.375,0.074,0.556,0.082c0.34,0.026,0.674,0.025,1.054-0.008
						c0.338-0.026,0.686-0.089,1.036-0.186c0.303-0.088,0.594-0.194,0.854-0.311l0.352-0.176c0.998-0.512,1.959-1.325,2.85-2.413
						c0.181-0.204,0.321-0.392,0.453-0.58l0.679,0.343l-0.618-0.425c0.221-0.315,0.394-0.557,0.555-0.81
						c0.003-0.004,0.035-0.047,0.054-0.072c0.02-0.055,0.046-0.108,0.078-0.157c0.022-0.037,0.049-0.073,0.076-0.106l-0.005-0.004
						c0.022-0.058,0.022-0.052,0.059-0.103c0.109-0.154,0.2-0.309,0.292-0.464l0.094-0.169c0.087-0.16,0.173-0.314,0.246-0.47
						c0.043-0.084,0.078-0.15,0.111-0.201c-0.001-0.004,0.014-0.029,0.034-0.061c0.084-0.186,0.17-0.363,0.254-0.519
						c0.01-0.026,0.021-0.052,0.034-0.078l-0.003-0.001c0.06-0.119,0.121-0.238,0.164-0.358c0.188-0.448,0.332-0.803,0.433-1.088
						c0.04-0.096,0.067-0.152,0.082-0.196c0.008-0.031,0.017-0.062,0.027-0.09l0.121-0.335c0.022-0.078,0.047-0.148,0.079-0.212
						c0.14-0.28,0.432-0.447,0.752-0.41c0.311,0.034,0.569,0.258,0.646,0.562c0.014,0.057,0.03,0.139,0.044,0.255
						c0.01,0.046,0.015,0.09,0.018,0.129c0.003,0.014,0.007,0.027,0.01,0.041c0.011,0.053,0.018,0.112,0.022,0.173
						c0.015,0.089,0.023,0.171,0.031,0.254c0.001,0.007,0.013,0.105,0.014,0.113c0.05,0.289,0.119,0.625,0.197,1
						c0.002,0.006,0.004,0.013,0.006,0.02c0.003,0.01,0.006,0.021,0.009,0.032c0.032,0.094,0.049,0.181,0.063,0.261
						c0.009,0.039,0.021,0.103,0.033,0.18l0.101,0.424c0.015,0.064,0.028,0.127,0.05,0.194l0.085,0.307
						c0.047,0.18,0.093,0.361,0.162,0.533c0.016,0.037,0.027,0.075,0.036,0.113c0.002,0.008,0.007,0.031,0.011,0.054
						c0.007,0.019,0.012,0.039,0.018,0.058c0.069,0.242,0.123,0.395,0.176,0.548l0.33,0.882c0.2,0.437,0.406,0.888,0.641,1.293
						c0.002,0.002,0.087,0.152,0.088,0.155c0.033,0.058,0.067,0.117,0.101,0.167c0.109,0.191,0.191,0.327,0.28,0.453
						c0.014,0.02,0.027,0.039,0.039,0.06c0.036,0.043,0.066,0.089,0.092,0.139c0.142,0.203,0.307,0.391,0.471,0.581
						c0.103,0.137,0.181,0.221,0.258,0.298l0.083,0.08c0.057,0.055,0.114,0.112,0.171,0.17c0.016,0.012,0.03,0.025,0.044,0.038
						c0.126,0.117,0.252,0.226,0.388,0.325c0.012,0.009,0.073,0.057,0.085,0.067c0.018,0.014,0.08,0.065,0.096,0.082
						c0.422,0.287,0.787,0.48,1.168,0.616c0.204,0.077,0.41,0.129,0.616,0.174c0.218,0.045,0.469,0.083,0.702,0.102
						c0.201,0.006,0.416,0.008,0.631-0.018c0.126-0.019,0.237-0.033,0.342-0.062c0.19-0.038,0.306-0.073,0.447-0.131
						c0.044-0.018,0.089-0.032,0.136-0.041c0.031-0.016,0.217-0.103,0.25-0.114c0.112-0.038,0.216-0.092,0.32-0.152
						c0.011-0.006,0.021-0.012,0.031-0.017c0.247-0.146,0.468-0.294,0.689-0.469c0.02-0.016,0.04-0.03,0.061-0.044
						c0.049-0.058,0.107-0.108,0.171-0.148c0.027-0.019,0.053-0.045,0.078-0.068c0.026-0.023,0.068-0.058,0.111-0.089
						c0.012-0.01,0.026-0.023,0.043-0.036c0.08-0.072,0.152-0.134,0.222-0.212c0.121-0.115,0.182-0.178,0.244-0.243l0.283-0.341
						l0.599,0.454l-0.52-0.542c0.044-0.065,0.085-0.106,0.137-0.142c0.184-0.236,0.377-0.487,0.551-0.739
						c0.197-0.28,0.379-0.563,0.561-0.857c0.064-0.113,0.149-0.253,0.235-0.395l0.168-0.278c0.46-0.82,0.832-1.564,1.128-2.256
						c0.145-0.282,0.235-0.503,0.318-0.742c0.175-0.401,0.325-0.752,0.446-1.094c0.148-0.384,0.281-0.728,0.382-1.051
						c0.536-1.53,0.857-2.722,0.921-3.034c0.08-0.388,0.45-0.646,0.839-0.59c0.392,0.055,0.673,0.404,0.644,0.798l-1.774,23.848
						c-0.018,0.228-0.138,0.436-0.326,0.564c-0.19,0.128-0.429,0.164-0.646,0.096c-3.409-1.064-7.577-2.075-8.588-1.843
						c-0.579,0.135-0.977,0.412-1.143,0.799c-0.146,0.341-0.101,0.757,0.125,1.143c0.151,0.259,0.134,0.584-0.046,0.826
						c-0.18,0.242-0.487,0.354-0.778,0.282c-0.982-0.238-2.527-0.28-2.866,0.255c-0.63,1.01-0.685,2.269-0.119,2.8
						c0.215,0.202,0.292,0.512,0.195,0.791c-0.096,0.279-0.347,0.476-0.642,0.503c-0.178,0.019-1.1,0.161-1.146,1.015
						c-0.076,1.254,0.418,1.736,1.239,2.107c1.113,0.502,5.555,2.628,5.814,2.759c0.341,0.171,0.5,0.571,0.368,0.929
						c-0.131,0.358-0.514,0.558-0.881,0.471c-1.056-0.256-5.936-1.244-6.673-1.111c-0.056,0.04-0.306,0.416-0.351,0.897
						c-0.014,0.145-0.022,0.498,0.182,0.655c0.657,0.504,8.76,4.473,13.713,6.856c0.366,0.176,0.525,0.612,0.359,0.983
						c-0.025,0.056-2.459,5.607-0.275,10.464c0.052,0.114,0.073,0.239,0.065,0.363l-1.785,23.997
						c-0.03,0.413-0.387,0.733-0.804,0.692c-0.413-0.031-0.723-0.391-0.692-0.804l1.772-23.811
						c-1.898-4.422-0.547-9.111,0.082-10.837c-3.121-1.505-12.489-6.045-13.355-6.721c-0.596-0.46-0.865-1.238-0.735-2.132
						c0.113-0.791,0.571-1.722,1.338-2.02c0.293-0.114,0.992-0.086,1.849,0.016c-0.253-0.118-0.462-0.215-0.607-0.28
						c-1.529-0.691-2.223-1.856-2.12-3.56c0.06-1.11,0.725-1.758,1.414-2.103c-0.419-1.071-0.248-2.478,0.525-3.72
						c0.684-1.074,2.171-1.184,3.256-1.103c-0.027-0.41,0.038-0.817,0.201-1.196c0.356-0.831,1.132-1.423,2.184-1.669
						c1.576-0.354,6.297,0.952,8.47,1.599l1.267-17.016c-0.074,0.186-0.161,0.376-0.261,0.567c-0.292,0.691-0.688,1.481-1.183,2.365
						l-0.186,0.31c-0.079,0.13-0.157,0.258-0.229,0.382c-0.212,0.342-0.409,0.65-0.618,0.947c-0.194,0.282-0.416,0.57-0.626,0.835
						c-0.016,0.019-0.088,0.104-0.104,0.122c-0.017,0.017-0.038,0.037-0.063,0.058c-0.022,0.024-0.045,0.049-0.071,0.076
						l-0.339,0.404c-0.085,0.088-0.169,0.174-0.258,0.254c-0.057,0.069-0.168,0.171-0.279,0.27
						c-0.028,0.025-0.068,0.058-0.101,0.078c0.019-0.009-0.004,0.014-0.054,0.048c-0.061,0.054-0.113,0.099-0.163,0.138
						c-0.091,0.1-0.185,0.168-0.263,0.217c-0.246,0.192-0.505,0.368-0.81,0.549c-0.033,0.023-0.069,0.043-0.107,0.06
						c-0.16,0.089-0.321,0.167-0.49,0.227c-0.056,0.026-0.107,0.047-0.162,0.067c-0.074,0.038-0.151,0.068-0.23,0.09
						c-0.221,0.087-0.423,0.146-0.63,0.183c-0.095,0.03-0.272,0.058-0.44,0.082c-0.381,0.047-0.692,0.043-0.955,0.034
						c-0.325-0.025-0.645-0.073-0.927-0.131c-0.286-0.062-0.566-0.137-0.821-0.234c-0.498-0.176-0.983-0.432-1.467-0.776
						c-0.025-0.013-0.111-0.065-0.203-0.147c-0.016-0.013-0.03-0.024-0.037-0.03c-0.167-0.123-0.316-0.247-0.463-0.38
						c-0.036-0.025-0.07-0.053-0.1-0.083c-0.092-0.099-0.148-0.153-0.205-0.207l-0.101-0.098c-0.135-0.135-0.268-0.283-0.373-0.43
						c-0.182-0.205-0.4-0.462-0.587-0.742c-0.003-0.004-0.006-0.009-0.009-0.013c-0.03-0.04-0.058-0.082-0.082-0.126
						c-0.109-0.157-0.21-0.324-0.31-0.501c-0.022-0.03-0.074-0.119-0.125-0.209l0.568-0.517l-0.648,0.376
						c-0.271-0.467-0.493-0.952-0.708-1.421l-0.055-0.121c-0.012-0.025-0.035-0.091-0.044-0.118l-0.262-0.712
						c-0.083-0.238-0.145-0.415-0.196-0.591c-0.007-0.018-0.023-0.081-0.04-0.144l0.001-0.001c-0.011-0.033-0.02-0.067-0.026-0.096
						c-0.08-0.21-0.14-0.429-0.197-0.648l-0.066-0.246c-0.029-0.085-0.055-0.191-0.079-0.3l-0.079-0.34
						c-0.084,0.151-0.169,0.33-0.253,0.518c-0.018,0.04-0.039,0.078-0.063,0.114c-0.012,0.023-0.04,0.07-0.055,0.092
						c-0.102,0.212-0.201,0.392-0.303,0.579l-0.09,0.164c-0.126,0.214-0.229,0.389-0.348,0.559c-0.03,0.059-0.061,0.106-0.086,0.143
						c-0.004,0.009-0.009,0.019-0.014,0.028c-0.05,0.116-0.121,0.229-0.216,0.343c-0.117,0.194-0.297,0.448-0.488,0.713
						c-0.03,0.05-0.066,0.102-0.103,0.149c-0.172,0.243-0.348,0.477-0.548,0.7c-1,1.223-2.121,2.165-3.311,2.776l-0.387,0.193
						c-0.353,0.159-0.708,0.288-1.086,0.398c-0.452,0.126-0.895,0.205-1.323,0.239c-0.457,0.04-0.875,0.043-1.271,0.01
						c-0.254-0.011-0.528-0.05-0.788-0.115c-0.438-0.085-0.897-0.244-1.367-0.479c-0.22-0.116-0.425-0.237-0.617-0.37
						c-0.219-0.152-0.404-0.302-0.596-0.478c-0.054-0.037-0.108-0.08-0.146-0.12c-0.021-0.021-0.039-0.043-0.056-0.066l-0.028-0.027
						c-0.139-0.139-0.24-0.252-0.34-0.363l-0.104-0.115c-0.126-0.139-0.236-0.29-0.332-0.44c-0.026-0.026-0.092-0.116-0.161-0.211
						c-0.024-0.034-0.105-0.15-0.123-0.188c-0.017-0.034-0.035-0.063-0.059-0.097c-0.035-0.04-0.096-0.137-0.152-0.252
						c-0.058-0.094-0.139-0.235-0.209-0.376c-0.075-0.114-0.168-0.309-0.256-0.497c-0.124-0.276-0.216-0.483-0.295-0.7l-0.049-0.124
						c-0.075-0.189-0.147-0.377-0.197-0.576c-0.146-0.384-0.278-0.8-0.403-1.272l-6.918,91.007
						C415.387,197.62,415.059,197.92,414.671,197.92z M449.596,111.474c-0.018,0.012-0.031,0.023-0.041,0.03
						c0.014-0.01,0.028-0.02,0.042-0.029L449.596,111.474z M425.643,111.007h0.01H425.643z M436.568,107.04l0.165,0.084
						l-0.293-0.212L436.568,107.04z M440.45,106.616C440.45,106.616,440.45,106.616,440.45,106.616
						C440.45,106.616,440.45,106.616,440.45,106.616z M440.4,106.472c0,0.001,0,0.001,0.001,0.002
						C440.4,106.473,440.4,106.473,440.4,106.472z"/>
				</g>
				<g>
					<path style="fill:#29275F;" d="M411.756,400.673c-0.045,0-0.09-0.004-0.136-0.012l-0.423-0.074
						c-0.203-0.035-0.403-0.069-0.6-0.107c-0.353-0.068-0.608-0.377-0.608-0.736c0-0.224,0.1-0.441,0.272-0.584
						c0.174-0.143,0.398-0.206,0.62-0.163c0.325,0.063,0.66,0.126,1.007,0.189c0.361,0.066,0.615,0.382,0.615,0.737
						c0,0.045-0.004,0.09-0.012,0.136C412.427,400.419,412.111,400.673,411.756,400.673z"/>
				</g>
				<g>
					<path style="fill:#29275F;" d="M410.74,400.493c-0.049,0-0.099-0.005-0.147-0.015l-0.34-0.064
						c-0.146-0.027-0.292-0.054-0.436-0.084c-0.399-0.083-0.659-0.471-0.584-0.872c0.075-0.402,0.455-0.672,0.86-0.603l0.361,0.065
						c0.133,0.025,0.268,0.049,0.404,0.071c0.364,0.058,0.632,0.371,0.632,0.74v0.011c0,0.225-0.101,0.438-0.274,0.58
						C411.08,400.434,410.912,400.493,410.74,400.493z"/>
				</g>
				<g>
					<path style="fill:#29275F;" d="M402.46,398.328c-0.08,0-0.161-0.013-0.24-0.04c-0.607-0.205-1.118-0.391-1.52-0.553
						c-0.378-0.153-0.564-0.579-0.421-0.96c0.145-0.381,0.564-0.575,0.95-0.443c0.201,0.07,0.431,0.155,0.686,0.249l0.797,0.291
						c0.388,0.139,0.592,0.564,0.456,0.952C403.06,398.134,402.77,398.328,402.46,398.328z"/>
				</g>
				<g>
					<path style="fill:#29275F;" d="M418.442,440.195c-0.357,0-0.715-0.004-1.073-0.011c-0.655-0.011-1.313-0.043-1.948-0.087
						c-0.326-0.009-0.671-0.031-1.015-0.065c-0.271-0.006-0.582-0.037-0.892-0.069c-0.641-0.057-1.253-0.121-1.844-0.196
						c-1.021-0.123-2.102-0.284-3.296-0.49c-0.309-0.056-0.615-0.111-0.909-0.176c-0.774-0.147-1.526-0.308-2.234-0.48
						c-0.423-0.095-0.837-0.193-1.228-0.302l-0.719-0.188c-0.908-0.244-1.771-0.501-2.568-0.763c-0.3-0.094-0.59-0.191-0.862-0.283
						l-0.167-0.057c-0.974-0.346-1.68-0.624-2.086-0.784l0.146-0.752l-0.266,0.701c-0.023-0.01-0.096-0.038-0.118-0.05
						c-0.092-0.046-0.149-0.069-0.164-0.075c-0.305-0.119-0.503-0.424-0.481-0.75l2.534-38.729c0.016-0.243,0.149-0.464,0.357-0.591
						c0.208-0.129,0.467-0.145,0.689-0.049c0.007,0.003,0.242,0.105,0.676,0.276l-0.008,0.033c0.036,0.002,0.072,0.007,0.106,0.014
						l0.002-0.006c0.004,0.002,0.017,0.007,0.033,0.013c0.083,0.02,0.162,0.052,0.236,0.097c0.367,0.146,0.823,0.31,1.357,0.491
						c0.345,0.114,0.673,0.224,1.021,0.332c1.512,0.487,3.036,0.908,4.537,1.252c0.21,0.056,0.397,0.094,0.594,0.134
						c0.423,0.098,0.837,0.19,1.263,0.273l0.773,0.148c0.181,0.035,0.37,0.067,0.563,0.1l0.439,0.076
						c0.978,0.167,1.908,0.296,2.837,0.394c0.204,0.035,0.355,0.052,0.513,0.06c0.216,0.027,0.341,0.045,0.474,0.054
						c1.047,0.107,2.101,0.18,3.158,0.221c0.001,0,0.002,0,0.003,0c1.237,0.052,2.471,0.062,3.671,0.02
						c0.333-0.01,0.664-0.02,0.993-0.041c1.034-0.043,2.081-0.127,3.126-0.25c0.243-0.022,0.476-0.053,0.711-0.083
						c0.459-0.053,0.919-0.113,1.379-0.195c0.545-0.086,1.076-0.18,1.616-0.283c0.541-0.104,1.081-0.218,1.621-0.343
						c0.54-0.125,1.091-0.26,1.632-0.405c0.233-0.063,0.483-0.01,0.671,0.144c0.187,0.153,0.289,0.388,0.272,0.629l-2.535,38.73
						c-0.02,0.319-0.242,0.591-0.552,0.675C427.364,439.629,422.983,440.195,418.442,440.195z M398.248,434.892
						c0.338,0.13,1.015,0.396,1.929,0.72l0.156,0.053c0.263,0.089,0.541,0.183,0.84,0.276c0.783,0.257,1.619,0.506,2.496,0.741
						l0.724,0.189c0.38,0.106,0.768,0.198,1.179,0.29c0.697,0.169,1.426,0.324,2.193,0.47c0.297,0.065,0.583,0.117,0.869,0.168
						c1.165,0.201,2.22,0.358,3.221,0.479c0.576,0.073,1.169,0.136,1.761,0.188c0.326,0.033,0.602,0.061,0.888,0.07
						c0.36,0.034,0.67,0.055,0.991,0.064c0.641,0.044,1.271,0.074,1.902,0.085c4.579,0.09,9.02-0.41,13.174-1.484l2.432-37.16
						c-0.225,0.055-0.449,0.107-0.673,0.159c-0.56,0.129-1.117,0.247-1.676,0.354c-0.558,0.107-1.104,0.203-1.65,0.29
						c-0.477,0.085-0.966,0.149-1.446,0.205c-0.242,0.031-0.495,0.063-0.735,0.086c-1.064,0.125-2.149,0.212-3.206,0.256
						c-0.33,0.02-0.675,0.031-1.018,0.043c-1.238,0.039-2.51,0.033-3.785-0.022c-1.088-0.042-2.173-0.117-3.226-0.225
						c-0.142-0.009-0.298-0.029-0.465-0.053c-0.187-0.01-0.396-0.034-0.606-0.071c-0.906-0.094-1.869-0.227-2.887-0.4l-0.432-0.075
						c-0.203-0.035-0.403-0.069-0.6-0.107l-0.345-0.065c-0.146-0.027-0.292-0.054-0.436-0.084c-0.433-0.085-0.862-0.182-1.282-0.278
						c-0.207-0.041-0.422-0.087-0.636-0.143c-1.518-0.349-3.086-0.78-4.633-1.279c-0.351-0.11-0.686-0.222-0.995-0.324
						c-0.658-0.223-1.169-0.408-1.57-0.57c-0.007-0.003-0.014-0.006-0.02-0.009L398.248,434.892z M400.907,396.533l-0.093,0.439
						l0.093-0.253V396.533z"/>
				</g>
				<g>
					<path style="fill:#29275F;" d="M429.003,470.338c-0.017,0-0.035-0.001-0.053-0.002c-0.413-0.028-0.725-0.386-0.696-0.8
						l0.972-13.52l1.235-17.24c-4.145,1.024-8.544,1.492-13.092,1.409c-0.655-0.011-1.313-0.043-1.948-0.087
						c-0.326-0.009-0.671-0.031-1.015-0.065c-0.271-0.006-0.582-0.037-0.892-0.069c-0.641-0.057-1.253-0.121-1.844-0.196
						c-1.221-0.147-2.303-0.309-3.303-0.492c-0.303-0.054-0.608-0.109-0.902-0.174c-0.774-0.147-1.526-0.308-2.234-0.48
						c-0.423-0.095-0.837-0.193-1.228-0.302l-0.719-0.188c-0.908-0.244-1.771-0.501-2.568-0.763c-0.3-0.094-0.59-0.191-0.862-0.283
						l-0.167-0.057c-0.631-0.225-1.149-0.42-1.547-0.573l-2.198,30.775c-0.028,0.413-0.386,0.721-0.8,0.696
						c-0.413-0.028-0.726-0.387-0.696-0.8l2.271-31.813c0.017-0.234,0.146-0.446,0.343-0.574c0.196-0.129,0.447-0.154,0.667-0.076
						c0,0,0.111,0.04,0.306,0.138c0.046,0.014,0.117,0.042,0.188,0.078c0.328,0.126,1.017,0.396,1.957,0.73l0.156,0.053
						c0.263,0.089,0.541,0.183,0.84,0.276c0.783,0.257,1.619,0.506,2.496,0.741l0.724,0.189c0.38,0.106,0.768,0.198,1.179,0.29
						c0.697,0.169,1.426,0.324,2.193,0.471c0.297,0.064,0.583,0.116,0.869,0.167c0.974,0.179,2.026,0.335,3.221,0.479
						c0.576,0.073,1.169,0.136,1.761,0.188c0.326,0.033,0.602,0.061,0.888,0.07c0.36,0.034,0.67,0.055,0.991,0.064
						c0.641,0.044,1.271,0.074,1.902,0.085c4.77,0.09,9.388-0.452,13.69-1.621c0.233-0.064,0.485-0.01,0.673,0.145
						s0.289,0.391,0.271,0.633l-2.281,31.799C429.723,470.035,429.393,470.338,429.003,470.338z"/>
				</g>
				<g>
					<path style="fill:#29275F;" d="M359.16,113.259c-10.12,0.001-15.526-14.276-15.757-14.898
						c-0.046-0.124-0.059-0.258-0.036-0.389l0.19-1.098c0.036-0.209,0.159-0.393,0.339-0.506c0.178-0.113,0.397-0.145,0.602-0.089
						c0.08,0.022,8.01,2.151,15.155-2.139c5.174-3.106,8.705-8.765,10.495-16.819h0.001c0.004-0.018,0.008-0.035,0.012-0.052
						c0.006-0.025,0.014-0.049,0.022-0.073c0.368-1.063,0.648-2.172,0.834-3.299c0.06-0.359,0.368-0.624,0.732-0.628
						c0.003,0,0.005,0,0.008,0c0.361,0,0.671,0.257,0.737,0.612l4.689,25.116c0.03,0.162,0.006,0.33-0.068,0.477
						c-0.271,0.532-6.734,13.041-17.209,13.759C359.655,113.251,359.405,113.259,359.16,113.259z M344.881,98.023
						c0.672,1.683,6.066,14.299,14.922,13.715c8.903-0.61,14.955-11.068,15.858-12.723L371.65,77.54
						c-0.013,0.039-0.026,0.078-0.04,0.117c-1.885,8.476-5.654,14.458-11.202,17.781c-6.414,3.842-13.207,2.942-15.508,2.475
						L344.881,98.023z M370.887,77.461h0.01H370.887z"/>
				</g>
				<g>
					<path style="fill:#29275F;" d="M349.437,98.349c-3.043,0-5.17-0.576-5.343-0.625c-0.37-0.104-0.602-0.471-0.537-0.85
						l0.992-5.765c0.047-0.273,0.24-0.499,0.504-0.585c0.263-0.088,0.552-0.022,0.753,0.169c0.207,0.197,0.385,0.357,0.534,0.47
						c1.516,1.178,4.721,1.164,9.036-0.027h0.001c0.11-0.03,11.108-3.157,14.794-13.895c0.129-0.376,0.531-0.587,0.912-0.478
						c0.383,0.108,0.615,0.496,0.529,0.884c-1.885,8.481-5.655,14.467-11.205,17.791C356.531,97.759,352.515,98.349,349.437,98.349z
						 M345.157,96.428c2.053,0.406,8.547,1.285,14.496-2.287c3.48-2.089,6.217-5.333,8.18-9.683
						c-4.988,6.098-11.916,8.084-12.058,8.124l0,0c-3.214,0.887-7.471,1.58-9.963,0.039L345.157,96.428z"/>
				</g>
				<g>
					<path style="fill:#29275F;" d="M349.772,93.531c-1.683,0-3.233-0.316-4.341-1.176c-0.178-0.132-0.402-0.331-0.66-0.577
						c-2.74-2.574-10.048-11.388-11.015-16.901c-0.718-4.053-0.262-14.75,0.074-20.767c0.148-2.626,0.275-4.405,0.275-4.405
						c0.003-0.044,0.01-0.087,0.021-0.128c0.007-0.763,0.058-1.541,0.152-2.316c0.042-0.41,0.109-0.821,0.187-1.232
						c0.065-0.359,0.143-0.735,0.231-1.089c0.042-0.213,0.105-0.462,0.193-0.7c0.1-0.439,0.273-0.995,0.487-1.566
						c0.05-0.15,0.12-0.328,0.19-0.493c0.066-0.184,0.157-0.399,0.248-0.602c0.098-0.228,0.191-0.443,0.301-0.651
						c0.048-0.13,0.106-0.241,0.155-0.329c0.006-0.014,0.012-0.028,0.019-0.043c0.006-0.012,0.011-0.024,0.017-0.035
						c0.025-0.066,0.061-0.144,0.108-0.226c0.136-0.228,0.381-0.368,0.645-0.368c0.149,0,0.348,0.065,0.471,0.149
						c0.027,0.018,0.054,0.038,0.079,0.06c0.058,0.035,0.113,0.077,0.169,0.127l0.485,0.329c0.073,0.046,0.154,0.091,0.24,0.14
						l0.357,0.204c0.125,0.066,0.294,0.156,0.462,0.235c1.749,0.844,4.744,1.809,9.126,1.65c3.643-0.138,7.392-1.954,10.699-3.555
						c3.81-1.847,6.82-3.307,8.682-1.703l0,0c2.449,2.111,2.483,6.562,2.514,10.49c0.01,1.223,0.019,2.379,0.1,3.378
						c0.253,3.229,3.004,3.961,3.603,4.083c0.849-0.143,1.727-0.118,2.547,0.073c0.617,0.161,1.186,0.398,1.712,0.709
						c1.163,0.667,2.185,1.727,2.864,2.98c0.873,1.636,1.198,3.655,0.919,5.688c-0.372,2.771-1.818,5.4-3.968,7.211
						c-1.603,1.364-3.618,2.252-5.727,2.531c-0.193,1.006-0.457,1.996-0.786,2.951c-0.006,0.023-0.012,0.047-0.021,0.07
						c-3.939,11.479-15.697,14.822-15.815,14.854C353.94,93.088,351.764,93.531,349.772,93.531z M335.59,49.989
						c-0.035,0.508-0.141,2.077-0.261,4.206c-0.268,4.791-0.813,16.372-0.096,20.422c0.894,5.094,8.014,13.671,10.569,16.071
						c0.211,0.201,0.389,0.362,0.538,0.474c1.516,1.178,4.721,1.164,9.036-0.027c0.111-0.03,11.091-3.151,14.785-13.867
						c0.006-0.024,0.013-0.049,0.021-0.072c0.368-1.063,0.648-2.172,0.834-3.299c0.057-0.34,0.338-0.599,0.682-0.625
						c2.005-0.157,3.942-0.954,5.455-2.242c1.871-1.576,3.128-3.859,3.451-6.268c0.236-1.725-0.031-3.42-0.754-4.775
						c-0.546-1.007-1.363-1.859-2.299-2.395c-0.414-0.245-0.854-0.428-1.316-0.549c-0.642-0.148-1.357-0.161-2.048-0.031
						c-0.083,0.015-0.168,0.017-0.251,0.005c-1.596-0.239-4.691-1.689-4.988-5.468c-0.085-1.052-0.094-2.235-0.104-3.486
						c-0.027-3.608-0.06-7.698-1.992-9.364c-1.113-0.96-3.997,0.438-7.049,1.915c-3.44,1.667-7.339,3.555-11.297,3.705
						c-4.681,0.171-7.931-0.88-9.829-1.795c-0.184-0.087-0.374-0.188-0.543-0.277l-0.365-0.208c-0.112-0.063-0.217-0.123-0.31-0.182
						l-0.1-0.066c-0.057,0.121-0.109,0.244-0.162,0.366c-0.089,0.202-0.168,0.388-0.237,0.574c-0.067,0.162-0.124,0.301-0.17,0.441
						c-0.203,0.542-0.357,1.037-0.469,1.502c-0.087,0.249-0.129,0.421-0.163,0.594c-0.089,0.359-0.158,0.702-0.219,1.034
						c-0.072,0.376-0.132,0.746-0.172,1.126c-0.096,0.79-0.143,1.57-0.143,2.33C335.626,49.84,335.613,49.917,335.59,49.989z"/>
				</g>
				<g>
					<path style="fill:#29275F;" d="M322.108,242.071c-0.4,0-0.86-0.069-1.387-0.241c-2.469-0.811-9.277-6.564-10.727-7.804
						c-0.204-0.01-0.521-0.027-0.923-0.05c-2.77-0.2-7.848-0.762-10.865-2.276c-3.119-1.549-6.943-7.34-8.945-10.654
						c-0.215-0.354-0.101-0.815,0.254-1.03c0.353-0.214,0.816-0.1,1.029,0.254c3.216,5.322,6.33,9.093,8.332,10.087
						c2.892,1.451,8.161,1.967,10.292,2.121c0.712,0.041,1.151,0.062,1.153,0.062c0.168,0.008,0.328,0.071,0.455,0.181
						c2.228,1.918,8.441,7.036,10.411,7.683c0.809,0.266,1.434,0.213,1.806-0.149c0.277-0.271,0.323-0.625,0.295-0.721
						c-0.211-0.551-0.957-1.901-1.202-2.346c-0.068-0.123-0.112-0.204-0.123-0.226c-0.144-0.286-0.089-0.632,0.136-0.86
						c0.224-0.228,0.569-0.29,0.857-0.152l0.1,0.049c1.421,0.699,4.114,1.945,6.192,2.434c1.792,0.416,2.622-0.21,2.965-0.642
						c-0.576-0.666-2.732-2.827-10.703-9.795l-0.173-0.15c-0.308-0.27-0.343-0.736-0.078-1.049c0.265-0.315,0.73-0.355,1.048-0.096
						c4.51,3.698,8.042,6.088,9.219,6.236c1.471,0.178,2.436-0.54,2.796-0.869c-0.026-0.186-0.138-0.619-0.643-1.241
						c-0.824-1.028-4.009-4.543-5.056-5.698l-0.392-0.434c-0.233-0.261-0.254-0.648-0.052-0.934
						c0.204-0.285,0.576-0.392,0.898-0.258c1.259,0.521,4.722,1.584,5.834,0.358c-0.237-1.998-12.993-10.16-16.365-10.889
						c-1.141-0.242-3.477-0.101-6.578,0.398c-2.831,0.455-5.402,1.061-5.428,1.067c-0.294,0.069-0.601-0.044-0.779-0.288
						l-2.017-2.767c-0.243-0.335-0.17-0.804,0.165-1.048c0.332-0.244,0.802-0.171,1.048,0.164l1.726,2.368
						c0.893-0.2,2.897-0.631,5.047-0.977c3.371-0.544,5.77-0.674,7.131-0.384c3.061,0.661,16.291,8.549,17.444,11.81
						c0.259,0.73-0.003,1.212-0.182,1.434c-1.113,1.374-3.214,1.32-4.951,0.96c1.366,1.517,3.075,3.428,3.674,4.173
						c1.227,1.516,0.974,2.559,0.91,2.752c-0.03,0.092-0.078,0.177-0.14,0.251c-0.064,0.076-1.607,1.876-4.278,1.538
						c-0.151-0.02-0.32-0.059-0.503-0.115c3.265,3.053,3.138,3.34,2.938,3.785c-0.552,1.222-2.153,2.425-4.867,1.798
						c-1.444-0.339-3.138-1.006-4.551-1.631c0.14,0.283,0.256,0.534,0.329,0.728c0.269,0.66,0.035,1.614-0.561,2.253
						C323.797,241.596,323.158,242.071,322.108,242.071z"/>
				</g>
			</g>
			<g>
				<path style="fill:#29275F;" d="M430.958,222.683c-0.016,0-0.031-0.001-0.047-0.001c-0.413-0.025-0.728-0.381-0.703-0.794
					l7.159-117.421c0.025-0.414,0.387-0.727,0.795-0.703c0.413,0.025,0.727,0.381,0.703,0.794l-7.159,117.421
					C431.681,222.376,431.35,222.683,430.958,222.683z"/>
			</g>
			<g>
				<path style="fill:#29275F;" d="M418.843,401.412c-0.015,0-0.03,0-0.045-0.001c-0.414-0.024-0.73-0.38-0.705-0.793l9.167-155.632
					c0.024-0.413,0.381-0.739,0.793-0.705c0.414,0.024,0.729,0.38,0.705,0.793l-9.167,155.632
					C419.567,401.105,419.236,401.412,418.843,401.412z"/>
			</g>
			<g>
				<path style="fill:#29275F;" d="M420.703,420.885c-14.268,0-21.932-3.978-22.326-4.188c-0.365-0.195-0.504-0.648-0.31-1.014
					c0.194-0.366,0.65-0.505,1.015-0.311c0.117,0.061,11.947,6.169,33.308,3.165c0.403-0.065,0.789,0.228,0.848,0.638
					c0.058,0.41-0.229,0.789-0.639,0.847C428.23,420.637,424.26,420.885,420.703,420.885z"/>
			</g>
		</g>
		<g>
			<path style="fill:#29275F;" d="M287.928,172.92c-0.215,0-0.428-0.092-0.576-0.27l-4.362-5.24
				c-0.266-0.318-0.222-0.791,0.097-1.056c0.315-0.265,0.79-0.223,1.056,0.096l4.362,5.24c0.266,0.318,0.222,0.792-0.097,1.056
				C288.268,172.863,288.098,172.92,287.928,172.92z"/>
		</g>
		<g>
			<path style="fill:#29275F;" d="M309.062,160.14c-0.414,0-0.75-0.336-0.75-0.75v-15.41c0-0.414,0.336-0.75,0.75-0.75
				s0.75,0.336,0.75,0.75v15.41C309.812,159.804,309.476,160.14,309.062,160.14z"/>
		</g>
		<g>
			<path style="fill:#29275F;" d="M306.713,157.352c-0.244,0-0.483-0.119-0.627-0.337l-3.964-6.016
				c-0.229-0.346-0.133-0.811,0.213-1.039c0.348-0.227,0.812-0.131,1.039,0.214l3.964,6.016c0.229,0.346,0.133,0.811-0.213,1.039
				C306.997,157.312,306.854,157.352,306.713,157.352z"/>
		</g>
		<g>
			<path style="fill:#29275F;" d="M400.866,171.093c-0.05,0-0.101-0.005-0.151-0.015c-0.406-0.083-0.667-0.48-0.584-0.885
				l4.646-22.692c0.082-0.405,0.478-0.665,0.885-0.584c0.406,0.083,0.667,0.48,0.584,0.885l-4.647,22.692
				C401.527,170.848,401.215,171.093,400.866,171.093z"/>
		</g>
		<g>
			<path style="fill:#29275F;" d="M404.482,169.35c-0.139,0-0.278-0.038-0.404-0.119c-0.349-0.224-0.449-0.688-0.227-1.036
				l5.432-8.471c0.224-0.349,0.686-0.451,1.037-0.227c0.349,0.224,0.449,0.688,0.227,1.036l-5.432,8.471
				C404.971,169.228,404.729,169.35,404.482,169.35z"/>
		</g>
		<g>
			<path style="fill:#29275F;" d="M322.635,237.378c-0.196,0-0.392-0.076-0.539-0.229l-7.114-7.355
				c-0.288-0.298-0.28-0.772,0.018-1.061c0.298-0.287,0.773-0.279,1.061,0.018l7.114,7.355c0.288,0.298,0.28,0.773-0.018,1.061
				C323.01,237.308,322.822,237.378,322.635,237.378z"/>
		</g>
		<g>
			<path style="fill:#29275F;" d="M328.792,224.947c-0.172,0-0.345-0.059-0.486-0.179l-4.562-3.879
				c-0.315-0.268-0.354-0.742-0.085-1.057c0.27-0.316,0.742-0.354,1.058-0.085l4.562,3.879c0.315,0.268,0.353,0.742,0.085,1.057
				C329.215,224.857,329.004,224.947,328.792,224.947z"/>
		</g>
		<g>
			<path style="fill:#29275F;" d="M321.832,228.031c-0.171,0-0.342-0.058-0.482-0.176l-2.755-2.314
				c-0.317-0.267-0.358-0.74-0.092-1.057c0.267-0.318,0.74-0.358,1.057-0.092l2.755,2.314c0.317,0.267,0.358,0.739,0.092,1.057
				C322.258,227.941,322.046,228.031,321.832,228.031z"/>
		</g>
		<g>
			<path style="fill:#29275F;" d="M454,140.884c-0.093,0-0.188-0.017-0.278-0.054l-8.279-3.314c-0.385-0.154-0.572-0.59-0.418-0.975
				c0.153-0.385,0.594-0.571,0.975-0.417l8.279,3.314c0.385,0.154,0.572,0.59,0.418,0.975
				C454.579,140.706,454.297,140.884,454,140.884z"/>
		</g>
		<g>
			<path style="fill:#29275F;" d="M453.999,135.628c-0.116,0-0.234-0.027-0.345-0.085l-4.169-2.168
				c-1.307-0.68-2.691-1.223-4.11-1.615l-5.493-1.515c-0.399-0.11-0.634-0.523-0.523-0.922c0.109-0.399,0.522-0.633,0.922-0.524
				l5.493,1.515c1.522,0.42,3.004,1.003,4.403,1.73l4.169,2.168c0.368,0.192,0.511,0.644,0.319,1.012
				C454.532,135.481,454.27,135.628,453.999,135.628z"/>
		</g>
		<g>
			<path style="fill:#29275F;" d="M456.007,132.252c-0.146,0-0.293-0.042-0.423-0.131l-3.381-2.316
				c-1.407-0.963-2.929-1.752-4.522-2.348l-4.187-1.563c-0.388-0.145-0.585-0.577-0.439-0.965c0.145-0.388,0.575-0.585,0.965-0.44
				l4.187,1.563c1.707,0.638,3.337,1.484,4.845,2.515l3.381,2.316c0.342,0.234,0.429,0.701,0.195,1.042
				C456.481,132.137,456.246,132.252,456.007,132.252z"/>
		</g>
		<g>
			<path style="fill:#29275F;" d="M458.067,128.801c-0.199,0-0.398-0.079-0.545-0.235l-3.834-4.054
				c-0.284-0.301-0.272-0.775,0.029-1.06c0.303-0.285,0.776-0.271,1.06,0.03l3.834,4.054c0.284,0.301,0.271,0.775-0.029,1.06
				C458.437,128.734,458.252,128.801,458.067,128.801z"/>
		</g>
		<g>
			<g>
				<path style="fill:#29275F;" d="M354.055,58.421c0.051,1.616,1.233,2.889,2.639,2.845c1.406-0.045,2.504-1.391,2.452-3.007
					c-0.051-1.616-1.233-2.889-2.639-2.845C355.102,55.459,354.004,56.805,354.055,58.421z"/>
			</g>
			<g>
				<path style="fill:#29275F;" d="M338.038,58.93c0.051,1.616,1.233,2.889,2.639,2.845c1.406-0.045,2.504-1.391,2.452-3.007
					c-0.051-1.616-1.233-2.889-2.639-2.845C339.085,55.968,337.987,57.314,338.038,58.93z"/>
			</g>
			<g>
				<path style="fill:#29275F;" d="M355.174,49.278c2.209,0.115,4.308,0.607,6.339,1.482c0.366,0.158,0.689,0.611,0.803,0.978
					c0.123,0.398,0.09,0.934-0.128,1.298c-0.22,0.365-0.553,0.692-0.978,0.803c-0.459,0.12-0.863,0.059-1.298-0.128
					c-0.109-0.047-0.22-0.09-0.33-0.135c-1.234-0.459-2.517-0.762-3.826-0.908c-0.159-0.013-0.317-0.027-0.476-0.035
					c-0.453-0.024-0.862-0.134-1.202-0.453c-0.3-0.282-0.534-0.752-0.529-1.17C353.562,50.161,354.236,49.229,355.174,49.278z"/>
			</g>
			<g>
				<path style="fill:#29275F;" d="M343.012,49.665c-2.197,0.255-4.261,0.88-6.232,1.882c-0.355,0.181-0.649,0.654-0.739,1.027
					c-0.098,0.405-0.031,0.938,0.21,1.287c0.242,0.351,0.596,0.655,1.027,0.739c0.466,0.091,0.865,0.004,1.287-0.21
					c0.106-0.054,0.214-0.104,0.321-0.155c1.203-0.536,2.464-0.92,3.76-1.149c0.158-0.023,0.315-0.047,0.473-0.066
					c0.451-0.052,0.851-0.189,1.17-0.529c0.282-0.3,0.486-0.784,0.454-1.202C344.678,50.444,343.945,49.557,343.012,49.665z"/>
			</g>
		</g>
		<g>
			<path style="fill:#E58E8B;" d="M357.596,66.461c-0.143,2.354,1.648,4.378,4.002,4.522s4.378-1.648,4.522-4.002
				c0.143-2.354-1.648-4.378-4.002-4.522C359.764,62.315,357.74,64.107,357.596,66.461z"/>
		</g>
		<g>
			<path style="fill:#E58E8B;" d="M347.361,60.985c0,0,2.088,2.718,1.332,5.349c-0.755,2.63-2.87,4.308-2.87,4.308
				s-4.598-1.479-4.098-5.125c0,0,0.028-1.665,2.37-1.797C346.436,63.589,347.361,60.985,347.361,60.985z"/>
		</g>
		<g>
			<path style="fill:#29275F;" d="M347.22,71.74c-1.414,0-2.825-0.49-3.93-1.374c-1.213-0.972-2.043-2.411-2.276-3.947
				c-0.179-1.177,0.119-2.174,0.817-2.735c0.435-0.35,0.932-0.47,1.371-0.575l0.217-0.053c2.172-0.561,3.911-2.589,4.136-4.822
				c0.042-0.412,0.414-0.716,0.821-0.671c0.412,0.042,0.713,0.409,0.671,0.821c-0.289,2.881-2.449,5.399-5.253,6.124l-0.242,0.06
				c-0.313,0.075-0.607,0.146-0.78,0.286c-0.268,0.214-0.37,0.716-0.275,1.341c0.179,1.168,0.809,2.262,1.731,3.001
				c0.923,0.739,2.123,1.117,3.308,1.034c0.408-0.035,0.772,0.283,0.8,0.696c0.029,0.413-0.283,0.771-0.696,0.8
				C347.5,71.735,347.36,71.74,347.22,71.74z"/>
		</g>
		<g>
			<path style="fill:#29275F;" d="M349.315,79.516c-0.393,0-0.725-0.308-0.748-0.706c-0.024-0.414,0.291-0.769,0.705-0.793
				c1.519-0.089,2.992-0.684,4.148-1.674c1.155-0.99,1.969-2.354,2.29-3.841c0.088-0.405,0.496-0.661,0.892-0.574
				c0.405,0.087,0.662,0.487,0.575,0.892c-0.392,1.805-1.379,3.461-2.781,4.663c-1.404,1.202-3.192,1.923-5.036,2.032
				C349.345,79.516,349.33,79.516,349.315,79.516z"/>
		</g>
		<g>
			<path style="fill:#29275F;" d="M373.14,70.08c-0.002,0-0.004,0-0.006,0c-0.414-0.003-0.747-0.341-0.744-0.756
				c0.039-5.194,3.935-9.297,4.101-9.47c0.286-0.297,0.76-0.308,1.06-0.02c0.298,0.287,0.308,0.762,0.021,1.06
				c-0.037,0.038-3.647,3.855-3.682,8.441C373.887,69.748,373.552,70.08,373.14,70.08z"/>
		</g>
	</g>
	<g>
		<g>
			<path style="fill:#E58E8B;" d="M414.973,33.79c0,1.081-0.875,1.956-1.956,1.956h-5.099v5.099c0,1.081-0.875,1.956-1.956,1.956
				c-0.541,0-1.029-0.22-1.385-0.571c-0.352-0.356-0.571-0.844-0.571-1.385v-5.099h-5.099c-1.081,0-1.956-0.875-1.956-1.956
				c0-0.541,0.22-1.029,0.571-1.385c0.356-0.352,0.844-0.571,1.385-0.571h5.099v-5.099c0-1.081,0.875-1.956,1.956-1.956
				c0.541,0,1.029,0.22,1.385,0.571c0.352,0.356,0.571,0.844,0.571,1.385v5.099h5.099C414.099,31.834,414.973,32.709,414.973,33.79z
				"/>
		</g>
		<g>
			<path style="fill:#E58E8B;" d="M410.81,55.751c-3.398,0-3.404,5.281,0,5.281C414.208,61.032,414.214,55.751,410.81,55.751z"/>
		</g>
		<g>
			<path style="fill:#E58E8B;" d="M435.043,34.323c-3.398,0-3.404,5.281,0,5.281C438.441,39.604,438.447,34.323,435.043,34.323z"/>
		</g>
	</g>
	<g>
		<g>
			<path style="fill:#E58E8B;" d="M84.06,252.1c0,1.081-0.875,1.956-1.956,1.956h-5.099v5.099c0,1.081-0.875,1.956-1.956,1.956
				c-0.541,0-1.029-0.22-1.385-0.571c-0.352-0.356-0.571-0.844-0.571-1.385v-5.099h-5.099c-1.081,0-1.956-0.875-1.956-1.956
				c0-0.541,0.22-1.029,0.571-1.385c0.356-0.352,0.844-0.571,1.385-0.571h5.099v-5.099c0-1.081,0.875-1.956,1.956-1.956
				c0.541,0,1.029,0.22,1.385,0.571c0.352,0.356,0.571,0.844,0.571,1.385v5.099h5.099C83.185,250.144,84.06,251.019,84.06,252.1z"/>
		</g>
		<g>
			<path style="fill:#E58E8B;" d="M55.134,267.949c-3.398,0-3.404,5.281,0,5.281C58.532,273.23,58.538,267.949,55.134,267.949z"/>
		</g>
		<g>
			<path style="fill:#E58E8B;" d="M57.999,229.298c-3.398,0-3.404,5.281,0,5.281C61.397,234.579,61.403,229.298,57.999,229.298z"/>
		</g>
	</g>
	<g>
		<g>
			<path style="fill:#E58E8B;" d="M296.122,62.635c0,1.081-0.875,1.956-1.956,1.956h-5.099v5.099c0,1.081-0.875,1.956-1.956,1.956
				c-0.541,0-1.029-0.22-1.385-0.572c-0.352-0.356-0.572-0.844-0.572-1.385v-5.099h-5.099c-1.081,0-1.956-0.875-1.956-1.956
				c0-0.541,0.22-1.029,0.571-1.385c0.356-0.352,0.844-0.571,1.385-0.571h5.099V55.58c0-1.081,0.875-1.956,1.956-1.956
				c0.541,0,1.029,0.22,1.385,0.571c0.352,0.356,0.571,0.844,0.571,1.385v5.099h5.099C295.248,60.679,296.122,61.553,296.122,62.635
				z"/>
		</g>
		<g>
			<path style="fill:#E58E8B;" d="M264.269,56.122c-3.398,0-3.404,5.281,0,5.281C267.667,61.403,267.673,56.122,264.269,56.122z"/>
		</g>
		<g>
			<path style="fill:#E58E8B;" d="M301.264,37.625c-3.398,0-3.404,5.281,0,5.281C304.661,42.906,304.667,37.625,301.264,37.625z"/>
		</g>
	</g>
	<g>
		<g>
			<path style="fill:#E58E8B;" d="M76.094,125.191c0,1.081-0.875,1.956-1.956,1.956h-5.099v5.099c0,1.081-0.875,1.956-1.956,1.956
				c-0.541,0-1.029-0.22-1.385-0.571c-0.352-0.356-0.571-0.844-0.571-1.385v-5.099h-5.099c-1.081,0-1.956-0.875-1.956-1.956
				c0-0.541,0.22-1.029,0.571-1.385c0.356-0.352,0.844-0.571,1.385-0.571h5.099v-5.099c0-1.081,0.875-1.956,1.956-1.956
				c0.541,0,1.029,0.22,1.385,0.571c0.352,0.356,0.571,0.844,0.571,1.385v5.099h5.099C75.219,123.235,76.094,124.11,76.094,125.191z
				"/>
		</g>
		<g>
			<path style="fill:#E58E8B;" d="M43.503,119.138c-3.398,0-3.404,5.281,0,5.281C46.901,124.419,46.907,119.138,43.503,119.138z"/>
		</g>
	</g>
</g>
</svg>
